<?xml version="1.0" encoding="UTF-8"?>
<svg id="Layer_2" data-name="Layer 2" xmlns="http://www.w3.org/2000/svg" viewBox="0 0 1200.23 637.46">
  <defs>
    <style>
      .cls-1 {
        stroke: #6194ab;
      }

      .cls-1, .cls-2 {
        stroke-linecap: round;
        stroke-width: 3.45px;
      }

      .cls-1, .cls-2, .cls-3 {
        fill: none;
        stroke-miterlimit: 10;
      }

      .cls-2 {
        stroke: #6dadcb;
      }

      .cls-4 {
        fill: #eaf6f2;
      }

      .cls-5 {
        fill: #f4fdfd;
      }

      .cls-6 {
        fill: #f1f8ff;
      }

      .cls-7 {
        fill: #7c8c96;
      }

      .cls-8 {
        fill: #9fa6ae;
      }

      .cls-9 {
        fill: #cdced3;
      }

      .cls-10 {
        fill: #cef3fc;
      }

      .cls-11 {
        fill: #cef3ff;
      }

      .cls-12 {
        fill: #a4dbec;
      }

      .cls-13 {
        fill: #b1e3f4;
      }

      .cls-14 {
        fill: #b1e3f3;
      }

      .cls-15 {
        fill: #d0f1fc;
      }

      .cls-16 {
        fill: #c3bdbf;
      }

      .cls-17 {
        fill: #dbe0e6;
      }

      .cls-18 {
        fill: #6dadcb;
      }

      .cls-19 {
        fill: #6ca6b9;
      }

      .cls-20 {
        fill: #61abc1;
      }

      .cls-21 {
        fill: #6194ab;
      }

      .cls-22 {
        fill: #516670;
      }

      .cls-3 {
        stroke: #8b9da7;
        stroke-width: 3.42px;
      }
    </style>
  </defs>
  <g id="bg">
    <g>
      <polygon class="cls-6" points=".38 .38 0 268.8 1198.96 278.55 1199.81 0 .38 .38"/>
      <path class="cls-5" d="m716.9,188.21S945.01,80.51,939.29,0C939.29,0,2.73,11.56.19,132.33l.19,225.69,666.93,13.2,49.59-183.02Z"/>
      <g id="road1">
        <polygon class="cls-9" points=".66 557.55 1199.95 555.01 1200.23 636.33 .09 637.18 .66 557.55"/>
        <polygon class="cls-17" points=".38 543.43 1199.81 542.3 1199.81 555.58 .66 557.55 .38 543.43"/>
      </g>
      <polygon class="cls-15" points="189.47 177.41 223.12 177.41 223.12 211.23 239.95 211.23 239.95 193.02 281.37 193.02 281.37 367.32 188.18 367.32 189.47 177.41"/>
      <polyline class="cls-11" points="861.23 241.15 861.23 111.07 852.17 111.07 852.17 83.76 797.81 83.76 797.81 113.68 791.34 114.98 790.04 368.63 862.53 368.63 861.23 241.15"/>
      <polygon class="cls-12" points="597.19 277.57 617.75 277.57 617.9 369.93 592.01 369.93 597.19 277.57"/>
      <polygon class="cls-11" points="886.18 156.6 919.48 156.6 919.48 216.44 928.54 216.44 928.54 243.75 861.23 243.75 861.23 215.14 885.82 215.14 886.18 156.6"/>
      <rect class="cls-11" x="381.03" y="217.74" width="34.95" height="46.83"/>
      <polygon class="cls-13" points="31.56 165.71 113.1 139.69 115.69 367.32 28.97 366.02 31.56 165.71"/>
      <polygon class="cls-14" points="300.78 179.87 381.03 153.85 381.03 368.48 303.37 368.48 300.78 179.87"/>
      <polygon class="cls-12" points="221.83 221.64 303.37 221.64 303.37 368.63 223.12 368.63 221.83 221.64"/>
      <polygon class="cls-11" points="430.22 215.14 470.34 215.14 470.34 164.41 509.17 164.41 509.17 369.93 432.81 369.93 430.22 215.14"/>
      <polygon class="cls-12" points="379.74 251.41 456.1 251.41 456.1 368.48 381.03 368.48 379.74 251.41"/>
      <polygon class="cls-11" points="114.4 219.04 166.17 219.04 166.17 367.32 115.69 367.32 114.4 219.04"/>
      <polygon class="cls-11" points="531.18 161.21 531.18 94.87 597.19 94.87 597.19 370.63 531.18 370.63 531.18 161.21"/>
      <polygon class="cls-14" points="617.9 131.89 686.5 131.89 686.7 168.31 687.79 368.63 617.9 369.93 617.9 131.89"/>
      <polygon class="cls-11" points="727.92 172.21 727.92 242.45 790.04 242.45 790.04 368.63 687.79 368.63 686.64 176.11 727.92 172.21"/>
      <polygon class="cls-11" points="976.43 139.69 1029.5 139.69 1029.5 369.93 977.72 369.93 976.43 139.69"/>
      <polygon class="cls-13" points="927.89 186.52 1008.14 186.52 1008.14 368.63 926.6 368.63 927.89 186.52"/>
      <polygon class="cls-12" points="997.14 232.05 1078.68 206.03 1078.68 369.93 994.55 369.93 997.14 232.05"/>
      <polygon class="cls-11" points="1199.95 272.09 1177.95 272.09 1177.3 249.98 1071.16 250.63 1069.22 369.65 1198.01 369 1199.95 272.09"/>
      <polygon class="cls-12" points="1144.44 291.66 1143.14 370.35 1200.09 370.35 1200.09 292.31 1144.44 291.66"/>
      <polygon class="cls-12" points="686.5 300.99 751.21 300.99 753.8 367.32 687.79 368.63 686.5 300.99"/>
      <polygon class="cls-12" points="307.09 190.8 307.09 195.84 373.91 195.84 373.91 191.29 307.09 190.8"/>
      <polygon class="cls-12" points="307.31 201.64 307.31 206.68 374.13 206.68 374.13 202.13 307.31 201.64"/>
      <polygon class="cls-12" points="307.52 213.78 307.52 218.82 374.34 218.82 374.34 214.27 307.52 213.78"/>
      <polygon class="cls-12" points="307.31 225.49 307.31 230.53 374.13 230.53 374.13 225.97 307.31 225.49"/>
      <polygon class="cls-12" points="306.88 237.41 306.88 242.45 373.7 242.45 373.7 237.9 306.88 237.41"/>
      <polygon class="cls-12" points="306.66 248.9 306.66 253.94 373.48 253.94 373.48 249.39 306.66 248.9"/>
      <polygon class="cls-12" points="306.88 261.04 306.88 266.08 373.7 266.08 373.7 261.53 306.88 261.04"/>
      <polygon class="cls-12" points="307.09 273.18 307.09 278.22 373.91 278.22 373.91 273.67 307.09 273.18"/>
      <polygon class="cls-12" points="307.42 284.56 307.42 289.6 374.24 289.6 374.24 285.05 307.42 284.56"/>
      <polygon class="cls-12" points="307.42 297.57 307.42 302.61 374.24 302.61 374.24 298.06 307.42 297.57"/>
      <polygon class="cls-12" points="307.42 308.63 307.42 313.67 374.24 313.67 374.24 309.12 307.42 308.63"/>
      <polygon class="cls-12" points="307.09 320.33 307.09 325.37 373.91 325.37 373.91 320.82 307.09 320.33"/>
      <polygon class="cls-12" points="307.09 331.72 307.09 336.76 373.91 336.76 373.91 332.2 307.09 331.72"/>
      <polygon class="cls-12" points="306.77 344.07 306.77 349.11 373.59 349.11 373.59 344.56 306.77 344.07"/>
      <polygon class="cls-12" points="307.09 355.45 307.09 360.5 373.91 360.5 373.91 355.94 307.09 355.45"/>
      <polygon class="cls-12" points="625.2 140.07 625.2 145.11 678.39 145.11 678.39 140.56 625.2 140.07"/>
      <polygon class="cls-12" points="625.37 150.91 625.37 155.95 678.56 155.95 678.56 151.4 625.37 150.91"/>
      <polygon class="cls-12" points="625.54 163.05 625.54 168.09 678.73 168.09 678.73 163.54 625.54 163.05"/>
      <polygon class="cls-12" points="625.37 174.76 625.37 179.8 678.56 179.8 678.56 175.25 625.37 174.76"/>
      <polygon class="cls-12" points="625.03 186.68 625.03 191.72 678.22 191.72 678.22 187.17 625.03 186.68"/>
      <polygon class="cls-12" points="624.85 198.17 624.85 203.21 678.04 203.21 678.04 198.66 624.85 198.17"/>
      <polygon class="cls-12" points="625.03 210.31 625.03 215.35 678.22 215.35 678.22 210.8 625.03 210.31"/>
      <polygon class="cls-12" points="625.2 222.45 625.2 227.49 678.39 227.49 678.39 222.94 625.2 222.45"/>
      <polygon class="cls-12" points="625.45 233.83 625.45 238.87 678.64 238.87 678.64 234.32 625.45 233.83"/>
      <polygon class="cls-12" points="625.45 246.84 625.45 251.88 678.64 251.88 678.64 247.33 625.45 246.84"/>
      <polygon class="cls-12" points="625.45 257.9 625.45 262.94 678.64 262.94 678.64 258.39 625.45 257.9"/>
      <polygon class="cls-12" points="625.2 269.6 625.2 274.65 678.39 274.65 678.39 270.09 625.2 269.6"/>
      <polygon class="cls-12" points="625.2 280.99 625.2 286.03 678.39 286.03 678.39 281.47 625.2 280.99"/>
      <polygon class="cls-12" points="624.94 293.34 624.94 298.38 678.13 298.38 678.13 293.83 624.94 293.34"/>
      <polygon class="cls-12" points="625.2 304.73 625.2 309.77 678.39 309.77 678.39 305.21 625.2 304.73"/>
      <polygon class="cls-12" points="625.45 318.38 625.45 323.42 678.64 323.42 678.64 318.87 625.45 318.38"/>
      <polygon class="cls-12" points="625.2 330.09 625.2 335.13 678.39 335.13 678.39 330.58 625.2 330.09"/>
      <polygon class="cls-12" points="625.2 341.47 625.2 346.51 678.39 346.51 678.39 341.96 625.2 341.47"/>
      <polygon class="cls-12" points="624.94 353.83 624.94 358.87 678.13 358.87 678.13 354.32 624.94 353.83"/>
      <polygon class="cls-13" points="799.35 118.39 799.35 123.43 852.54 123.43 852.54 118.88 799.35 118.39"/>
      <polygon class="cls-13" points="799.61 129.77 799.61 134.81 852.8 134.81 852.8 130.26 799.61 129.77"/>
      <polygon class="cls-13" points="799.87 143.43 799.87 148.47 853.06 148.47 853.06 143.92 799.87 143.43"/>
      <polygon class="cls-13" points="799.61 155.14 799.61 160.18 852.8 160.18 852.8 155.63 799.61 155.14"/>
      <polygon class="cls-13" points="799.61 166.52 799.61 171.56 852.8 171.56 852.8 167.01 799.61 166.52"/>
      <polygon class="cls-12" points="958.95 241.15 958.95 255.46 942.13 255.46 942.13 368.63 791.98 368.63 792.63 240.5 958.95 241.15"/>
      <polygon class="cls-13" points="799.35 178.88 799.35 183.92 852.54 183.92 852.54 179.36 799.35 178.88"/>
      <polygon class="cls-13" points="799.61 190.26 799.61 195.3 852.8 195.3 852.8 190.75 799.61 190.26"/>
      <polygon class="cls-13" points="798.96 202.62 798.96 207.66 852.15 207.66 852.15 203.1 798.96 202.62"/>
      <polygon class="cls-12" points="96.28 285.38 94.98 367.32 176.53 368.63 176.53 286.68 96.28 285.38"/>
      <path class="cls-20" d="m38.68,211.88c13-6.96,9.33-20.8,22.33-27.32,7.33-3.67,17.65-3.85,22.33.98,3.8,3.91,1.19,8.32,4.85,11.71,5.74,5.3,15.59-2.33,24.27.98,7.12,2.71,4.33,10,13.59,26.34,7.88,13.9,13.35,15.52,12.62,22.44-.78,7.37-7.28,8.16-9.71,18.54-1.93,8.22,1.52,10.44-.97,15.61-2.92,6.07-9.06,5.96-22.33,11.71-16.37,7.1-15.21,10.82-26.21,13.66-2.91.75-21.12,5.45-28.15-2.93-4.94-5.89.51-12.44-4.85-19.51-4.46-5.88-9.51-3.05-19.42-9.76-2.9-1.96-13.36-9.05-13.59-18.54-.13-5.17,2.92-5.51,4.85-12.68,3.42-12.68-4.02-19.36,0-25.36,3.74-5.58,10.78-.71,20.39-5.85Z"/>
      <path id="lowTree2" class="cls-21" d="m1053.01,370.14l100.96.87c1.81.5,1.81-10.54-8.2-9.97-1.95-11.5-5.64-17.28-11.22-16.91-6-4.33-11.07-1.31-15.53,6.5-12.22-8.1-20.31-10.4-24.59-7.37-6.01,2.68-8.06,5.88-6.47,9.54l-6.04-.43-4.31,1.73c-4.65-3.81-9-4.54-12.94-1.3-3.74,2.71-3.89,6.66-2.16,11.27l-9.49,6.07Z"/>
      <path id="Cloud3" class="cls-11" d="m1061.85,108.47l76.37.43c.45-4.92-1.27-9.29-9.06-12.14-4.15-1.47-7.21-.36-9.49,2.6-3.68-5.42-8.73-7.53-15.1-6.5-6.08,1.66-10.93,4.59-13.81,9.54-2.59-4.34-6.33-5.78-11.22-4.34-5.07.62-6.98,2.92-6.47,6.5-1.69-.81-3.97-1.25-8.2-.43l-3.02,4.34Z"/>
      <path id="cloud2" class="cls-11" d="m615.74,103.27h116.06c1.27-6.36-.11-11.61-11.65-12.57-6.99-.86-12.74-.18-16.83,2.6-6.25-4.58-13.94-7.42-23.3-8.24-9.34.69-15.2,4.31-18.12,10.41-6.76-3.41-13.32-5.24-19.42-3.47-4.82-2.12-7.52,1.81-9.49,7.8-1.99-3.65-5.51-3.06-9.92,0-4.15-1.75-5.97.47-7.33,3.47Z"/>
      <path id="lowTree4" class="cls-11" d="m.66,573.65c14.64-.47,30.13,6.28,44.29,18.3,25.28-27.34,35.55-26.55,43.16-14.6s29.18-2.24,22.85,33.19c18.03-.39,24.04,14.37,19.04,14.6,7.01,9.79,4.68,12.28-1.27,11.95l-128.37.37.28-63.81Z"/>
      <path id="lowTree3" class="cls-21" d="m1040.56,636.11c.11-4.81.79-9.4,5.18-12.68,3.15-4.31,9.25-5.38,16.5-5.2,1.13-5.18,3.1-9.69,7.77-12.03,4.62-1.19,8.75-1.84,10.03.65-5.97-13.66,4.35-20.55,12.3-21.79,5.89-4.89,14.34-3.79,23.95,0,5.92-9.73,12.69-17.31,21.68-19.19,16.83-3.24,28.57,4.66,34.62,25.04,8.06,3.95,13.46,2.01,19.42,1.3,5.88,1.26,7.81,7.19,4.85,18.86l3.24.98v24.39l-159.53-.33Z"/>
      <line class="cls-1" x1="83.33" y1="229.44" x2="83.33" y2="358.22"/>
      <path class="cls-1" d="m100.48,261.64s-8.74,13.93-15.53,10.9"/>
      <path class="cls-1" d="m60.86,275.3c-1.92,4.26,11.93,19.68,22.47,15.4"/>
      <path class="cls-1" d="m65.54,222.61c.74,20.16,7.92,24.15,16.5,21.57"/>
      <g id="Tree1">
        <path class="cls-19" d="m488.46,225.11c5.95-2.89,12.51,2.97,16.39-.87,3.39-3.34,1.38-10.7.86-12.57-1.85-6.78-5.4-7.47-7.77-13.87-.52-1.4-4.08-11.01,0-16.48,5.33-7.14,18.16.26,26.32-7.8,4.55-4.49,2.19-8.4,7.33-13.01,5.07-4.55,14.53-7.17,19.42-3.47,7.9,5.98-1.45,24.41,7.33,30.78,1.66,1.21,1.96.52,10.35,2.17,12.1,2.38,18.15,3.57,20.28,6.5,5.17,7.12-6.15,17.86-.86,26.45,3.81,6.19,11.74,3.98,13.81,9.54,2.35,6.33-7.44,10.52-7.77,21.25-.31,9.99,8.01,12.05,6.47,21.25-.98,5.86-5.7,13.09-12.08,15.61-2.38.94-4.03.84-6.47,2.6-4.34,3.13-3.51,6.62-6.04,9.11-6.31,6.21-20.57-6.51-33.65-.43-5.28,2.45-3.94,4.98-9.49,7.8-9.88,5.03-27.38,3.79-34.52-8.24-3.81-6.41-3.94-16.98,0-24.28,1.46-2.7,3.17-4.37,2.59-6.5-1.16-4.24-9.3-2.7-14.67-6.94-10.02-7.91-7.68-33.81,2.16-38.59Z"/>
        <line class="cls-1" x1="538.94" y1="230.45" x2="538.94" y2="369.63"/>
        <path class="cls-1" d="m522.97,226.52c.64,20.16,6.88,24.15,14.35,21.57"/>
        <path class="cls-1" d="m565.48,237.25c-6.15,18.16-14.41,26.69-24.38,27.42"/>
        <path class="cls-1" d="m515.97,267.49c5.55,10.29,13.08,16.43,22.54,18.54"/>
        <path class="cls-1" d="m563.75,287.98c-5.55,10.29-13.08,16.43-22.54,18.54"/>
      </g>
      <g id="Tree3">
        <path class="cls-20" d="m1101.33,174.81c7.74-8.62-2.92-23.78,4.85-30.24,5.24-4.35,16.16-2.51,21.36,2.93,4.5,4.71,1.75,9.02,5.82,12.68,6.6,5.93,16.83-2.69,26.21,2.93,5.01,3,8.89,9.53,8.74,15.61-.27,10.6-12.62,13.36-13.59,26.34-.14,1.93-.59,7.92,2.91,10.73,4.04,3.23,9.13-1.11,16.5.98,5.54,1.57,10.69,6.29,12.62,11.71,3.62,10.16-4.29,22.28-10.68,28.29-5.74,5.4-9.87,5.5-10.68,9.76-1.17,6.17,6.82,9.58,6.8,17.56-.02,5.02-3.2,8.62-6.8,12.68-7.08,8-20.69,16.63-31.06,12.68-3.6-1.37-3.49-3-9.71-5.85-1.84-.85-7.2-3.26-13.59-3.9-12.35-1.24-15.14,5.5-22.33,2.93-6.57-2.35-4.8-8.17-13.59-13.66-7.48-4.67-11.43-2.12-15.53-6.83-3.72-4.28-4.68-11.22-2.91-16.58,2.56-7.76,9.46-8.11,9.71-13.66.22-5.1-5.57-6-8.74-14.63-.52-1.41-3.82-10.8,0-14.63,4.99-5.01,18.41,3.17,20.39,0,1.77-2.84-9.26-8.93-11.65-21.46-.35-1.86-2.18-11.43,2.91-17.56,8-9.62,24.21-.08,32.03-8.78Z"/>
        <line class="cls-1" x1="1117.51" y1="230.74" x2="1117.51" y2="366.02"/>
        <path class="cls-1" d="m1142.43,249.61c-2.92,15.71-11.45,24.1-23.95,27.32"/>
        <path class="cls-1" d="m1131.43,230.42c-1.34,7.11-5.26,10.9-11,12.36"/>
        <path class="cls-1" d="m1096.48,235.62c2.33,11.59,9.13,17.79,19.09,20.16"/>
        <path class="cls-1" d="m1090.65,280.82c5.45,15.63,14.2,23.13,25.89,23.41"/>
      </g>
      <g id="Tree2">
        <path class="cls-18" d="m845.27,310.52c2.52-1.9,3.79-.77,6.47-2.6,3.61-2.46,3.39-5.92,5.61-6.07,2.33-.16,5.18,3.47,5.18,3.47h0s.56,3.74,2.59,5.64c1.9,1.78,3.58.53,5.18,2.17,1.67,1.71,1.92,5.21.43,6.94-1.14,1.32-2.71.94-7.77.87-7.91-.12-10.02.73-15.53-.43-4.67-.98-5.37-2.05-5.61-2.6-.97-2.21,1.09-5.59,3.45-7.37Z"/>
        <path class="cls-18" d="m825.21,300.66c5.15,1.58,7.1.16,9.06,2.17,1.92,1.96,2.4,5.72.86,7.8-.67.91-1.77,1.56-9.49,1.73-9.36.21-11.88-.65-13.37-1.3-2.56-1.11-5.94-3.28-5.61-4.77.34-1.52,4.16-.6,6.9-3.47,2.14-2.24,1.28-4.34,3.02-5.2,1.96-.97,3.55,1.48,8.63,3.04Z"/>
        <path class="cls-18" d="m796.52,226.52c2.56-6.28,17.12-1.94,21.36-9.76,2.85-5.25-2.59-9.29,0-19.51.6-2.36,2.52-9.97,7.77-11.71,4.39-1.46,6.47,2.73,12.62,1.95,5.91-.75,6.6-4.95,11.65-4.88,4.68.07,8.7,3.74,10.68,6.83,3.43,5.35.19,8.08,2.91,13.66,3.71,7.61,11.44,6.04,14.56,13.66,1.44,3.52,1.5,8.04,0,11.71-2.47,6.05-7.85,6.61-7.77,10.73.09,4.21,5.82,8.78,5.82,8.78,0,0-1.47,6.91,0,11.71,1.88,6.15,7.61,5.66,9.71,10.73,2.39,5.77-1.3,15.41-7.77,19.51-9.26,5.88-20.95-14.01-37.86-1.95-10.03,7.15-11.18,4.31-20.39,3.9-1.99-.09-22.33-1.27-29.12-15.61-.63-1.32-4.43-9.36-.97-15.61,4.08-7.38,14.27-5.02,16.5-10.73,2.91-7.47-12.48-16.61-9.71-23.41Z"/>
        <path class="cls-21" d="m777.42,232.05c-4.37-10.65,3.99-15.64,10.68-19.51,3.32-1.92,7.98-2.65,11.65-.98,3.32,1.52,3.37,3.88,7.77,9.76,1.82,2.43,5.81,7.69,11.65,11.71,7.47,5.14,10.74,3.28,12.62,6.83,3.15,5.96-5.71,11.93-2.91,20.49,1.56,4.78,4.88,4.62,6.8,10.73.57,1.81,2.24,7.15,0,11.71-2.59,5.26-7.76,4.11-19.42,10.73-7.89,4.48-7.4,6.08-12.62,7.8-5.48,1.82-15.84,3.31-20.39-1.95-4.16-4.81-3.79-9.05-3.88-15.61-.11-7.53-12.34-4.55-15.53-5.85-11.97-4.88-10.03-26.99-3.88-31.22h0c12.57-3.9,19.36-10.04,17.47-14.63Z"/>
        <line class="cls-2" x1="797.81" y1="260.51" x2="799.1" y2="367.18"/>
        <path class="cls-1" d="m861.56,255.78c-2.69,7.7-9.37,10.87-18.12,11.71"/>
        <path class="cls-1" d="m861.56,316.27c-2.54,8.18-8.87,11.55-17.15,12.44"/>
        <path class="cls-1" d="m822.08,312.37c2.69,7.7,9.37,10.87,18.12,11.71"/>
        <line class="cls-1" x1="843.11" y1="239.4" x2="843.11" y2="368.18"/>
        <path class="cls-2" d="m818.2,271.56c-3.7,9.54-10.7,13.91-19.42,15.61"/>
        <path class="cls-2" d="m779.69,265.86c5.35,8.09,11.23,12.15,17.64,12.19"/>
      </g>
      <polygon class="cls-13" points="163.58 250.11 163.58 368.48 241.24 368.48 241.24 251.41 163.58 250.11"/>
      <path class="cls-21" d="m158.7,371.3c3.43.04,4.94-4.29,2.26-6.44-2.9-2.32-6.35-4.03-9.27-2.56-6.47,3.25-8.74,2.52-7.77-.65,2.16-7.04-1.16-11.41-3.88-11.71-1.9-.21-.95-4.62-9.3-3.09,0,0-1.7.98-2.55-2.51-.61-2.49-3.53-5.67-12.24-3.91-1.09.22-2.01.95-2.5,1.95-1.09,2.24-3.27,6.08-5.12,5.62-2.59-.65,4.53-6.5-6.47-5.2l-11,1.3s5.78-2.08,0,0c-4.77,1.72-4.17-6.07-10.35-5.85-2.18-.17-4.86-.23-7.77,1.95-6.07,4.55-7.12,4.55-11,2.6-3.88-1.95-11-8.45-13.59-5.2-2.59,3.25-7.23,2.57-8.41,7.15-1.51,5.82-1.24,8.16-7.77,6.5-7.12-1.81-4.69,2.11-7.12,1.95s-5.18,1.3-7.77,6.5-4.53,7.15-6.47,8.45c-1.67,1.12,115.19,2.72,148.09,3.14Z"/>
      <path id="lowTree1" class="cls-12" d="m453.31,370.27l106.66.92c1.91.53,1.91-11.13-8.66-10.54-2.06-12.15-5.96-18.26-11.85-17.87-6.33-4.57-11.69-1.39-16.41,6.87-12.91-8.55-21.46-10.98-25.98-7.79-6.35,2.84-8.52,6.21-6.84,10.08l-6.38-.46-4.56,1.83c-4.92-4.03-9.51-4.8-13.67-1.37-3.95,2.86-4.11,7.04-2.28,11.91l-10.03,6.41Z"/>
      <path id="cloud1" class="cls-10" d="m166.82,105.55l117.78-1.3c3.57-4.5,2.59-8.21-7.12-10.41-4.94-.74-8.13.18-9.06,3.25-6.89-9.73-13.98-14.6-21.36-13.01-7.57.15-13.08,3.96-17.47,9.76-6.18-9.7-23.33-12.77-23.95-10.41-1.88-2.66-19.39,3.11-21.36,12.36-4.93-3.67-9.03-3.91-12.3-.65-5.56,1.91-6.08,5.87-5.18,10.41Z"/>
      <g id="road2">
        <polygon id="road2-2" data-name="road2" class="cls-7" points=".19 541.18 1199.81 540.61 1199.53 404.23 .19 404.33 .19 541.18"/>
        <line class="cls-3" x1="1199.95" y1="474.96" x2=".38" y2="474.54"/>
      </g>
      <g id="road3">
        <polygon class="cls-8" points="1200.09 370.49 1200.09 403.81 0 403.76 0 367.62 1200.09 370.49"/>
        <polygon class="cls-16" points="1199.95 396.75 0 397.24 0 411.55 1200.09 411.29 1199.95 396.75"/>
      </g>
      <g id="_light2_" data-name="&amp;lt;light2&amp;gt;">
        <ellipse class="cls-4" cx="1014.22" cy="257.52" rx="7.47" ry="7.51"/>
        <ellipse class="cls-4" cx="982.83" cy="257.9" rx="7.47" ry="7.51"/>
        <g id="light">
          <polygon class="cls-22" points="1000.74 268.02 1011.87 268.02 1012.25 268.81 1015.97 268.81 1016.08 266.23 1017.51 266.18 1018.24 265.76 1018.24 264.58 1009.66 264.58 1009.66 265.66 1010.42 266.1 1011.82 266.1 1011.82 266.96 1000.71 266.96 1000.71 265.01 996.4 265.01 996.39 266.94 985.23 266.94 985.26 266.08 986.31 266.08 986.85 265.68 986.88 264.54 978.49 264.54 978.49 265.68 978.79 266.08 980.57 266.08 980.54 268.26 980.57 268.72 984.5 268.72 985.1 267.94 996.36 267.95 996.36 269.78 997.08 270.11 997.14 271.07 996.29 379.15 995.48 381.27 992.57 383.22 992.73 385.33 1003.73 385.29 1004.05 383.14 1001.38 381.39 1000.25 379.07 1000.44 350.45 1000.2 270.19 1000.74 269.89 1000.74 268.02"/>
          <polygon class="cls-22" points="1001.65 344.45 1001.57 346.73 1000.93 347.22 1000.85 348.11 1000.28 348.27 1000.23 344.53 1001.65 344.45"/>
          <polygon class="cls-22" points="995.26 344.37 995.34 346.65 995.99 347.14 996.07 348.03 996.64 348.19 996.69 344.45 995.26 344.37"/>
          <rect class="cls-22" x="1000.44" y="349.96" width=".75" height="1.65"/>
          <rect class="cls-22" x="995.85" y="349.88" width=".75" height="1.57"/>
        </g>
      </g>
      <g id="_light1_" data-name="&amp;lt;light1&amp;gt;">
        <ellipse class="cls-4" cx="288.01" cy="257.55" rx="7.47" ry="7.51"/>
        <ellipse class="cls-4" cx="256.62" cy="257.93" rx="7.47" ry="7.51"/>
        <g id="light-2" data-name="light">
          <polygon class="cls-22" points="274.52 268.05 285.66 268.05 286.03 268.83 289.76 268.83 289.86 266.26 291.29 266.2 292.02 265.78 292.02 264.6 283.45 264.6 283.45 265.69 284.2 266.12 285.6 266.12 285.6 266.99 274.49 266.99 274.49 265.04 270.18 265.04 270.18 266.96 259.01 266.96 259.04 266.11 260.09 266.11 260.63 265.7 260.66 264.56 252.27 264.56 252.27 265.7 252.57 266.11 254.35 266.11 254.32 268.29 254.35 268.75 258.29 268.75 258.88 267.97 270.14 267.98 270.14 269.81 270.87 270.13 270.92 271.1 270.07 379.18 269.26 381.29 266.35 383.25 266.51 385.36 277.51 385.32 277.84 383.16 275.17 381.42 274.04 379.1 274.23 350.48 273.98 270.21 274.52 269.92 274.52 268.05"/>
          <polygon class="cls-22" points="275.44 344.48 275.36 346.76 274.71 347.24 274.63 348.14 274.06 348.3 274.01 344.56 275.44 344.48"/>
          <polygon class="cls-22" points="269.05 344.4 269.13 346.67 269.77 347.16 269.86 348.06 270.42 348.22 270.47 344.48 269.05 344.4"/>
          <rect class="cls-22" x="274.23" y="349.98" width=".75" height="1.65"/>
          <rect class="cls-22" x="269.63" y="349.9" width=".75" height="1.57"/>
        </g>
      </g>
    </g>
  </g>
</svg>