<?xml version="1.0" encoding="UTF-8"?>
<svg id="Layer_2" data-name="Layer 2" xmlns="http://www.w3.org/2000/svg" viewBox="0 0 1067.29 615.83">
  <defs>
    <style>
      .cls-1 {
        stroke: #6d94aa;
      }

      .cls-1, .cls-2 {
        stroke-linecap: round;
      }

      .cls-1, .cls-2, .cls-3 {
        fill: none;
        stroke-miterlimit: 10;
        stroke-width: 3px;
      }

      .cls-2 {
        stroke: #7cacc9;
      }

      .cls-3 {
        stroke: #8f9da7;
      }

      .cls-4 {
        fill: #f3f9fe;
      }

      .cls-5 {
        fill: #f7fefe;
      }

      .cls-6 {
        fill: #edf7f3;
      }

      .cls-7 {
        fill: #73aabf;
      }

      .cls-8 {
        fill: #7cacc9;
      }

      .cls-9 {
        fill: #7f8c96;
      }

      .cls-10 {
        fill: #a1a7ae;
      }

      .cls-11 {
        fill: #cecfd4;
      }

      .cls-12 {
        fill: #b0daeb;
      }

      .cls-13 {
        fill: #bce3f3;
      }

      .cls-14 {
        fill: #bce3f2;
      }

      .cls-15 {
        fill: #d6f3fe;
      }

      .cls-16 {
        fill: #d6f3fc;
      }

      .cls-17 {
        fill: #d7f1fc;
      }

      .cls-18 {
        fill: #dde1e6;
      }

      .cls-19 {
        fill: #c3bec0;
      }

      .cls-20 {
        fill: #6d94aa;
      }

      .cls-21 {
        fill: #55656f;
      }

      .cls-22 {
        fill: #79a5b8;
      }
    </style>
  </defs>
  <g id="BackGround">
    <polygon class="cls-4" points="10.45 1.13 10.45 295.91 1064.19 304.94 1065.32 0 10.45 1.13"/>
    <path class="cls-5" d="m634.76,226.5s202.58-100.98,197.52-170.88c0,0-830.03,17.8-832.28,122.66v195.48l590.87,11.65,43.89-158.91Z"/>
    <g id="road1">
      <polygon class="cls-11" points="11.29 545.79 1063.9 544.66 1066.16 615.81 9.04 614.68 11.29 545.79"/>
      <polygon class="cls-18" points="9.04 533.93 1065.03 536.19 1063.9 545.22 9.04 546.35 9.04 533.93"/>
    </g>
    <polygon class="cls-17" points="177.32 217.13 206.68 217.13 206.68 246.49 221.36 246.49 221.36 230.68 257.51 230.68 257.51 382.02 176.19 382.02 177.32 217.13"/>
    <polyline class="cls-15" points="763.48 272.47 763.48 159.53 755.57 159.53 755.57 135.81 708.14 135.81 708.14 161.79 702.49 162.92 701.36 383.15 764.61 383.15 763.48 272.47"/>
    <polygon class="cls-12" points="533.08 304.09 551.02 304.09 551.15 384.28 528.56 384.28 533.08 304.09"/>
    <polygon class="cls-15" points="785.25 199.06 814.3 199.06 814.3 251.01 822.21 251.01 822.21 274.73 763.48 274.73 763.48 249.88 784.94 249.88 785.25 199.06"/>
    <rect class="cls-15" x="344.47" y="252.14" width="30.49" height="40.66"/>
    <polygon class="cls-13" points="39.53 206.96 110.68 184.38 112.94 382.02 37.27 380.89 39.53 206.96"/>
    <polygon class="cls-14" points="274.45 219.26 344.47 196.67 344.47 383.02 276.71 383.02 274.45 219.26"/>
    <polygon class="cls-12" points="205.55 255.53 276.71 255.53 276.71 383.15 206.68 383.15 205.55 255.53"/>
    <polygon class="cls-15" points="387.39 249.88 422.4 249.88 422.4 205.83 456.28 205.83 456.28 384.28 389.65 384.28 387.39 249.88"/>
    <polygon class="cls-12" points="343.34 281.38 409.98 281.38 409.98 383.02 344.47 383.02 343.34 281.38"/>
    <polygon class="cls-15" points="111.81 253.27 156.99 253.27 156.99 382.02 112.94 382.02 111.81 253.27"/>
    <polygon class="cls-15" points="475.48 203.06 475.48 145.46 533.08 145.46 533.08 384.89 475.48 384.89 475.48 203.06"/>
    <polygon class="cls-14" points="551.15 177.6 611.01 177.6 611.18 209.22 612.14 383.15 551.15 384.28 551.15 177.6"/>
    <polygon class="cls-15" points="647.15 212.61 647.15 273.6 701.36 273.6 701.36 383.15 612.14 383.15 611.14 216 647.15 212.61"/>
    <polygon class="cls-15" points="864 184.38 910.3 184.38 910.3 384.28 865.13 384.28 864 184.38"/>
    <polygon class="cls-13" points="821.65 225.03 891.67 225.03 891.67 383.15 820.52 383.15 821.65 225.03"/>
    <polygon class="cls-12" points="882.07 264.56 953.22 241.98 953.22 384.28 879.81 384.28 882.07 264.56"/>
    <polygon class="cls-15" points="1064.47 299.58 1045.27 299.58 1044.7 280.38 952.09 280.94 950.4 384.28 1062.77 383.72 1064.47 299.58"/>
    <polygon class="cls-12" points="1015.9 315.95 1014.77 384.28 1064.47 384.28 1064.47 316.52 1015.9 315.95"/>
    <polygon class="cls-12" points="611.01 324.42 667.48 324.42 669.74 382.02 612.14 383.15 611.01 324.42"/>
    <polygon class="cls-12" points="279.95 228.75 279.95 233.13 338.26 233.13 338.26 229.18 279.95 228.75"/>
    <polygon class="cls-12" points="280.14 238.16 280.14 242.54 338.45 242.54 338.45 238.59 280.14 238.16"/>
    <polygon class="cls-12" points="280.33 248.71 280.33 253.08 338.63 253.08 338.63 249.13 280.33 248.71"/>
    <polygon class="cls-12" points="280.14 258.87 280.14 263.25 338.45 263.25 338.45 259.29 280.14 258.87"/>
    <polygon class="cls-12" points="279.76 269.22 279.76 273.6 338.07 273.6 338.07 269.65 279.76 269.22"/>
    <polygon class="cls-12" points="279.58 279.2 279.58 283.58 337.88 283.58 337.88 279.62 279.58 279.2"/>
    <polygon class="cls-12" points="279.76 289.74 279.76 294.12 338.07 294.12 338.07 290.16 279.76 289.74"/>
    <polygon class="cls-12" points="279.95 300.28 279.95 304.66 338.26 304.66 338.26 300.71 279.95 300.28"/>
    <polygon class="cls-12" points="280.23 310.16 280.23 314.54 338.54 314.54 338.54 310.59 280.23 310.16"/>
    <polygon class="cls-12" points="280.23 321.46 280.23 325.83 338.54 325.83 338.54 321.88 280.23 321.46"/>
    <polygon class="cls-12" points="280.23 331.06 280.23 335.43 338.54 335.43 338.54 331.48 280.23 331.06"/>
    <polygon class="cls-12" points="279.95 341.22 279.95 345.6 338.26 345.6 338.26 341.65 279.95 341.22"/>
    <polygon class="cls-12" points="279.95 351.11 279.95 355.48 338.26 355.48 338.26 351.53 279.95 351.11"/>
    <polygon class="cls-12" points="279.67 361.83 279.67 366.21 337.98 366.21 337.98 362.26 279.67 361.83"/>
    <polygon class="cls-12" points="279.95 371.72 279.95 376.09 338.26 376.09 338.26 372.14 279.95 371.72"/>
    <polygon class="cls-12" points="557.52 184.71 557.52 189.08 603.93 189.08 603.93 185.13 557.52 184.71"/>
    <polygon class="cls-12" points="557.67 194.12 557.67 198.49 604.08 198.49 604.08 194.54 557.67 194.12"/>
    <polygon class="cls-12" points="557.82 204.66 557.82 209.03 604.23 209.03 604.23 205.08 557.82 204.66"/>
    <polygon class="cls-12" points="557.67 214.82 557.67 219.2 604.08 219.2 604.08 215.25 557.67 214.82"/>
    <polygon class="cls-12" points="557.37 225.18 557.37 229.55 603.78 229.55 603.78 225.6 557.37 225.18"/>
    <polygon class="cls-12" points="557.22 235.15 557.22 239.53 603.63 239.53 603.63 235.58 557.22 235.15"/>
    <polygon class="cls-12" points="557.37 245.69 557.37 250.07 603.78 250.07 603.78 246.12 557.37 245.69"/>
    <polygon class="cls-12" points="557.52 256.23 557.52 260.61 603.93 260.61 603.93 256.66 557.52 256.23"/>
    <polygon class="cls-12" points="557.75 266.12 557.75 270.49 604.16 270.49 604.16 266.54 557.75 266.12"/>
    <polygon class="cls-12" points="557.75 277.41 557.75 281.79 604.16 281.79 604.16 277.83 557.75 277.41"/>
    <polygon class="cls-12" points="557.75 287.01 557.75 291.39 604.16 291.39 604.16 287.43 557.75 287.01"/>
    <polygon class="cls-12" points="557.52 297.18 557.52 301.55 603.93 301.55 603.93 297.6 557.52 297.18"/>
    <polygon class="cls-12" points="557.52 307.06 557.52 311.43 603.93 311.43 603.93 307.48 557.52 307.06"/>
    <polygon class="cls-12" points="557.3 317.79 557.3 322.16 603.71 322.16 603.71 318.21 557.3 317.79"/>
    <polygon class="cls-12" points="557.52 327.67 557.52 332.05 603.93 332.05 603.93 328.09 557.52 327.67"/>
    <polygon class="cls-12" points="557.75 339.53 557.75 343.91 604.16 343.91 604.16 339.95 557.75 339.53"/>
    <polygon class="cls-12" points="557.52 349.69 557.52 354.07 603.93 354.07 603.93 350.12 557.52 349.69"/>
    <polygon class="cls-12" points="557.52 359.58 557.52 363.95 603.93 363.95 603.93 360 557.52 359.58"/>
    <polygon class="cls-12" points="557.3 370.31 557.3 374.68 603.71 374.68 603.71 370.73 557.3 370.31"/>
    <polygon class="cls-13" points="709.49 165.88 709.49 170.26 755.9 170.26 755.9 166.31 709.49 165.88"/>
    <polygon class="cls-13" points="709.71 175.76 709.71 180.14 756.12 180.14 756.12 176.19 709.71 175.76"/>
    <polygon class="cls-13" points="709.93 187.62 709.93 192 756.35 192 756.35 188.05 709.93 187.62"/>
    <polygon class="cls-13" points="709.71 197.79 709.71 202.16 756.12 202.16 756.12 198.21 709.71 197.79"/>
    <polygon class="cls-13" points="709.71 207.67 709.71 212.05 756.12 212.05 756.12 208.09 709.71 207.67"/>
    <polygon class="cls-12" points="848.75 272.47 848.75 284.89 834.07 284.89 834.07 383.15 703.06 383.15 703.62 271.91 848.75 272.47"/>
    <polygon class="cls-13" points="709.49 218.4 709.49 222.78 755.9 222.78 755.9 218.82 709.49 218.4"/>
    <polygon class="cls-13" points="709.71 228.28 709.71 232.66 756.12 232.66 756.12 228.71 709.71 228.28"/>
    <polygon class="cls-13" points="709.15 239.01 709.15 243.39 755.56 243.39 755.56 239.43 709.15 239.01"/>
    <polygon class="cls-12" points="96 310.87 94.87 382.02 166.02 383.15 166.02 312 96 310.87"/>
    <path class="cls-7" d="m45.74,247.06c11.34-6.04,8.14-18.06,19.48-23.72,6.4-3.19,15.4-3.34,19.48.85,3.31,3.4,1.04,7.23,4.24,10.16,5.01,4.6,13.6-2.02,21.18.85,6.21,2.35,3.78,8.68,11.86,22.87,6.87,12.07,11.65,13.48,11.01,19.48-.68,6.4-6.35,7.09-8.47,16.09-1.68,7.14,1.32,9.06-.85,13.55-2.54,5.27-7.91,5.17-19.48,10.16-14.28,6.16-13.27,9.39-22.87,11.86-2.54.65-18.43,4.74-24.56-2.54-4.31-5.12.44-10.8-4.24-16.94-3.89-5.11-8.3-2.65-16.94-8.47-2.53-1.71-11.66-7.86-11.86-16.09-.11-4.49,2.55-4.79,4.24-11.01,2.98-11.01-3.51-16.81,0-22.02,3.26-4.85,9.4-.62,17.79-5.08Z"/>
    <path id="lowTree2" class="cls-20" d="m930.82,384.47l88.09.75c1.58.43,1.58-9.15-7.15-8.66-1.7-9.99-4.92-15-9.79-14.68-5.23-3.76-9.66-1.14-13.55,5.65-10.66-7.03-17.72-9.03-21.46-6.4-5.25,2.33-7.03,5.1-5.65,8.28l-5.27-.38-3.76,1.51c-4.06-3.31-7.85-3.94-11.29-1.13-3.27,2.35-3.4,5.79-1.88,9.79l-8.28,5.27Z"/>
    <path id="Cloud3" class="cls-15" d="m938.54,157.27l66.64.38c.39-4.27-1.11-8.07-7.91-10.54-3.62-1.28-6.29-.31-8.28,2.26-3.21-4.7-7.62-6.53-13.18-5.65-5.3,1.44-9.53,3.99-12.05,8.28-2.26-3.76-5.52-5.02-9.79-3.76-4.42.54-6.09,2.53-5.65,5.65-1.48-.71-3.47-1.09-7.15-.38l-2.64,3.76Z"/>
    <path id="cloud2" class="cls-15" d="m549.27,152.75h101.27c1.11-5.53-.09-10.08-10.16-10.92-6.1-.75-11.12-.15-14.68,2.26-5.46-3.98-12.16-6.44-20.33-7.15-8.15.6-13.26,3.74-15.81,9.04-5.9-2.96-11.62-4.55-16.94-3.01-4.21-1.84-6.56,1.57-8.28,6.78-1.74-3.17-4.81-2.66-8.66,0-3.62-1.52-5.21.41-6.4,3.01Z"/>
    <path id="lowTree4" class="cls-15" d="m10.16,560.48c12.78-.41,25.3,5.7,37.66,16.14,22.06-23.73,31.02-23.05,37.66-12.68s25.46-1.95,19.94,28.82c15.73-.34,20.98,12.48,16.62,12.68,6.12,8.5,4.08,10.66-1.11,10.37H12.38s-2.22-55.33-2.22-55.33Z"/>
    <path id="lowTree3" class="cls-20" d="m925.7,615.25c.09-4.17.69-8.17,4.52-11.01,2.75-3.74,8.07-4.67,14.4-4.52.99-4.5,2.71-8.41,6.78-10.45,4.03-1.04,7.64-1.6,8.75.56-5.21-11.86,3.79-17.85,10.73-18.92,5.14-4.24,12.51-3.29,20.89,0,5.17-8.45,11.07-15.03,18.92-16.66,14.68-2.81,24.93,4.05,30.21,21.74,7.03,3.43,11.74,1.75,16.94,1.13,5.13,1.1,6.81,6.24,4.24,16.38l2.82.85v21.18l-139.2-.28Z"/>
    <line class="cls-1" x1="84.71" y1="262.31" x2="84.71" y2="374.12"/>
    <path class="cls-1" d="m99.67,290.26s-7.62,12.09-13.55,9.46"/>
    <path class="cls-1" d="m65.1,302.12c-1.68,3.7,10.41,17.09,19.61,13.37"/>
    <path class="cls-1" d="m69.18,256.38c.64,17.51,6.91,20.97,14.4,18.73"/>
    <g id="Tree1">
      <path class="cls-22" d="m438.21,258.54c5.19-2.51,10.91,2.58,14.31-.75,2.95-2.9,1.2-9.29.75-10.92-1.62-5.89-4.71-6.49-6.78-12.05-.45-1.22-3.56-9.56,0-14.31,4.65-6.2,15.84.22,22.96-6.78,3.97-3.9,1.91-7.29,6.4-11.29,4.43-3.95,12.67-6.23,16.94-3.01,6.89,5.19-1.26,21.19,6.4,26.73,1.45,1.05,1.71.45,9.04,1.88,10.56,2.07,15.84,3.1,17.69,5.65,4.51,6.18-5.36,15.5-.75,22.96,3.32,5.37,10.25,3.46,12.05,8.28,2.05,5.49-6.49,9.13-6.78,18.45-.27,8.67,6.99,10.46,5.65,18.45-.85,5.09-4.97,11.37-10.54,13.55-2.08.81-3.52.73-5.65,2.26-3.79,2.72-3.06,5.75-5.27,7.91-5.5,5.39-17.95-5.65-29.36-.38-4.6,2.13-3.44,4.32-8.28,6.78-8.62,4.37-23.89,3.29-30.12-7.15-3.32-5.57-3.44-14.75,0-21.08,1.27-2.35,2.77-3.79,2.26-5.65-1.01-3.68-8.11-2.34-12.8-6.02-8.74-6.87-6.7-29.36,1.88-33.51Z"/>
      <line class="cls-1" x1="482.26" y1="263.18" x2="482.26" y2="384.02"/>
      <path class="cls-1" d="m468.33,259.76c.56,17.51,6.01,20.97,12.52,18.73"/>
      <path class="cls-1" d="m505.41,269.08c-5.36,15.77-12.57,23.18-21.27,23.81"/>
      <path class="cls-1" d="m462.21,295.34c4.84,8.93,11.42,14.26,19.67,16.09"/>
      <path class="cls-1" d="m503.9,313.13c-4.84,8.93-11.42,14.26-19.67,16.09"/>
    </g>
    <g id="Tree3">
      <path class="cls-7" d="m972.99,214.87c6.76-7.48-2.55-20.65,4.24-26.26,4.57-3.78,14.1-2.18,18.64,2.54,3.93,4.09,1.53,7.83,5.08,11.01,5.76,5.15,14.69-2.33,22.87,2.54,4.37,2.61,7.76,8.28,7.62,13.55-.23,9.2-11.01,11.6-11.86,22.87-.13,1.68-.52,6.88,2.54,9.32,3.52,2.81,7.96-.97,14.4.85,4.83,1.36,9.33,5.46,11.01,10.16,3.16,8.82-3.74,19.35-9.32,24.56-5.01,4.69-8.61,4.78-9.32,8.47-1.02,5.36,5.95,8.32,5.93,15.25-.02,4.36-2.8,7.49-5.93,11.01-6.17,6.95-18.06,14.44-27.11,11.01-3.14-1.19-3.05-2.6-8.47-5.08-1.61-.74-6.28-2.83-11.86-3.39-10.77-1.07-13.21,4.77-19.48,2.54-5.73-2.04-4.19-7.09-11.86-11.86-6.53-4.06-9.97-1.84-13.55-5.93-3.25-3.71-4.09-9.74-2.54-14.4,2.23-6.74,8.26-7.04,8.47-11.86.2-4.43-4.86-5.21-7.62-12.71-.45-1.23-3.33-9.37,0-12.71,4.35-4.35,16.06,2.75,17.79,0,1.55-2.46-8.08-7.75-10.16-18.64-.31-1.61-1.9-9.93,2.54-15.25,6.98-8.36,21.13-.07,27.95-7.62Z"/>
      <line class="cls-1" x1="987.1" y1="263.43" x2="987.1" y2="380.89"/>
      <path class="cls-1" d="m1008.85,279.81c-2.55,13.64-9.99,20.92-20.89,23.72"/>
      <path class="cls-1" d="m999.25,263.15c-1.17,6.17-4.59,9.47-9.6,10.73"/>
      <path class="cls-1" d="m968.75,267.67c2.03,10.07,7.97,15.44,16.66,17.51"/>
      <path class="cls-1" d="m963.67,306.92c4.76,13.57,12.39,20.09,22.59,20.33"/>
    </g>
    <g id="Tree2">
      <path class="cls-8" d="m749.55,332.71c2.2-1.65,3.3-.67,5.65-2.26,3.15-2.14,2.96-5.14,4.89-5.27,2.04-.14,4.52,3.01,4.52,3.01h0s.48,3.24,2.26,4.89c1.66,1.54,3.12.46,4.52,1.88,1.46,1.49,1.67,4.53.38,6.02-.99,1.14-2.37.82-6.78.75-6.91-.1-8.74.63-13.55-.38-4.08-.85-4.68-1.78-4.89-2.26-.85-1.92.95-4.85,3.01-6.4Z"/>
      <path class="cls-8" d="m732.05,324.14c4.49,1.37,6.2.14,7.91,1.88,1.67,1.7,2.09,4.97.75,6.78-.59.79-1.55,1.35-8.28,1.51-8.17.19-10.36-.56-11.67-1.13-2.23-.97-5.19-2.85-4.89-4.14.3-1.32,3.63-.52,6.02-3.01,1.86-1.94,1.12-3.77,2.64-4.52,1.71-.84,3.1,1.28,7.53,2.64Z"/>
      <path class="cls-8" d="m707.01,259.76c2.23-5.46,14.94-1.68,18.64-8.47,2.48-4.56-2.26-8.07,0-16.94.52-2.05,2.2-8.65,6.78-10.16,3.83-1.26,5.64,2.37,11.01,1.69,5.16-.65,5.76-4.3,10.16-4.24,4.08.06,7.59,3.25,9.32,5.93,2.99,4.64.17,7.01,2.54,11.86,3.24,6.61,9.99,5.24,12.71,11.86,1.26,3.06,1.31,6.98,0,10.16-2.15,5.25-6.85,5.74-6.78,9.32.08,3.66,5.08,7.62,5.08,7.62,0,0-1.28,6,0,10.16,1.64,5.34,6.64,4.92,8.47,9.32,2.08,5.01-1.14,13.38-6.78,16.94-8.08,5.1-18.28-12.16-33.04-1.69-8.75,6.21-9.76,3.74-17.79,3.39-1.73-.08-19.49-1.1-25.41-13.55-.55-1.15-3.87-8.13-.85-13.55,3.56-6.41,12.45-4.36,14.4-9.32,2.54-6.48-10.89-14.43-8.47-20.33Z"/>
      <path class="cls-20" d="m690.35,264.56c-3.81-9.25,3.49-13.58,9.32-16.94,2.9-1.67,6.97-2.3,10.16-.85,2.9,1.32,2.94,3.37,6.78,8.47,1.59,2.11,5.07,6.68,10.16,10.16,6.52,4.46,9.38,2.85,11.01,5.93,2.75,5.17-4.98,10.36-2.54,17.79,1.36,4.15,4.26,4.02,5.93,9.32.49,1.57,1.96,6.21,0,10.16-2.26,4.57-6.77,3.57-16.94,9.32-6.88,3.89-6.46,5.28-11.01,6.78-4.78,1.58-13.82,2.87-17.79-1.69-3.63-4.17-3.3-7.85-3.39-13.55-.1-6.54-10.76-3.95-13.55-5.08-10.45-4.24-8.75-23.44-3.39-27.11h0c10.97-3.39,16.89-8.72,15.25-12.71Z"/>
      <line class="cls-2" x1="708.14" y1="289.28" x2="709.27" y2="381.89"/>
      <path class="cls-1" d="m763.76,285.18c-2.35,6.69-8.18,9.44-15.81,10.16"/>
      <path class="cls-1" d="m763.76,337.69c-2.22,7.1-7.74,10.03-14.96,10.8"/>
      <path class="cls-1" d="m729.32,334.31c2.35,6.69,8.18,9.44,15.81,10.16"/>
      <line class="cls-1" x1="747.67" y1="270.95" x2="747.67" y2="382.76"/>
      <path class="cls-2" d="m725.93,298.87c-3.23,8.29-9.34,12.08-16.94,13.55"/>
      <path class="cls-2" d="m692.33,293.93c4.67,7.03,9.8,10.55,15.39,10.59"/>
    </g>
    <polygon class="cls-13" points="154.73 280.25 154.73 383.02 222.49 383.02 222.49 281.38 154.73 280.25"/>
    <path class="cls-20" d="m150.47,385.47c2.99.04,4.31-3.73,1.97-5.59-2.53-2.01-5.54-3.5-8.09-2.22-5.65,2.82-7.63,2.19-6.78-.56,1.89-6.11-1.01-9.91-3.39-10.16-1.66-.18-.83-4.01-8.11-2.68,0,0-1.49.85-2.23-2.18-.53-2.16-3.08-4.93-10.68-3.4-.95.19-1.76.82-2.18,1.69-.96,1.94-2.86,5.28-4.47,4.88-2.26-.56,3.95-5.65-5.65-4.52l-9.6,1.13s5.04-1.81,0,0c-4.16,1.49-3.64-5.27-9.04-5.08-1.9-.14-4.24-.2-6.78,1.69-5.3,3.95-6.21,3.95-9.6,2.26s-9.6-7.34-11.86-4.52-6.31,2.23-7.34,6.21c-1.32,5.06-1.08,7.08-6.78,5.65-6.21-1.57-4.09,1.84-6.21,1.69s-4.52,1.13-6.78,5.65-3.95,6.21-5.65,7.34c-1.46.97,100.51,2.36,129.22,2.73Z"/>
    <path id="lowTree1" class="cls-12" d="m407.54,384.58l93.07.8c1.67.46,1.66-9.67-7.56-9.15-1.79-10.55-5.2-15.85-10.34-15.51-5.53-3.97-10.2-1.2-14.32,5.97-11.27-7.43-18.72-9.54-22.67-6.76-5.54,2.46-7.43,5.39-5.97,8.75l-5.57-.4-3.98,1.59c-4.29-3.5-8.3-4.16-11.93-1.19-3.45,2.48-3.59,6.11-1.99,10.34l-8.75,5.57Z"/>
    <path id="cloud1" class="cls-16" d="m157.55,154.73l102.78-1.13c3.12-3.91,2.26-7.13-6.21-9.04-4.31-.64-7.09.16-7.91,2.82-6.01-8.44-12.2-12.68-18.64-11.29-6.6.13-11.41,3.44-15.25,8.47-5.4-8.42-20.36-11.09-20.89-9.04-1.64-2.31-16.92,2.7-18.64,10.73-4.3-3.19-7.88-3.4-10.73-.56-4.85,1.66-5.31,5.09-4.52,9.04Z"/>
    <g id="road2">
      <polygon id="road2-2" data-name="road2" class="cls-9" points="9.04 537.88 1062.77 537.88 1062.77 419.29 6.78 419.29 9.04 537.88"/>
      <line class="cls-3" x1="1062.67" y1="480.23" x2="11.19" y2="480.23"/>
    </g>
    <g id="road3">
      <polygon class="cls-10" points="1065.03 384.03 1066.16 413.91 9.04 413.91 9.04 381.89 1065.03 384.03"/>
      <polygon class="cls-19" points="1067.29 408 9.04 408 9.04 420.42 1066.16 420.42 1067.29 408"/>
    </g>
    <g id="_light2_" data-name="&amp;lt;light2&amp;gt;">
      <circle class="cls-6" cx="896.98" cy="286.68" r="6.52"/>
      <circle class="cls-6" cx="869.59" cy="287.01" r="6.52"/>
      <g id="light">
        <polygon class="cls-21" points="885.21 295.8 894.93 295.8 895.26 296.48 898.5 296.48 898.6 294.25 899.85 294.2 900.48 293.83 900.48 292.81 893 292.81 893 293.75 893.66 294.13 894.88 294.13 894.88 294.88 885.19 294.88 885.19 293.19 881.42 293.19 881.42 294.86 871.68 294.86 871.7 294.12 872.62 294.12 873.09 293.76 873.11 292.78 865.8 292.78 865.8 293.76 866.06 294.12 867.61 294.12 867.59 296.01 867.61 296.41 871.04 296.41 871.56 295.73 881.39 295.74 881.39 297.33 882.02 297.61 882.07 298.45 881.33 392.29 880.62 394.13 878.08 395.82 878.22 397.66 887.82 397.62 888.1 395.75 885.77 394.23 884.79 392.22 884.95 367.38 884.74 297.68 885.21 297.42 885.21 295.8"/>
        <polygon class="cls-21" points="886.01 362.16 885.94 364.14 885.37 364.56 885.3 365.34 884.81 365.48 884.77 362.23 886.01 362.16"/>
        <polygon class="cls-21" points="880.43 362.09 880.5 364.07 881.07 364.49 881.14 365.27 881.63 365.41 881.68 362.16 880.43 362.09"/>
        <rect class="cls-21" x="884.95" y="366.94" width=".66" height="1.43"/>
        <rect class="cls-21" x="880.94" y="366.87" width=".66" height="1.36"/>
      </g>
    </g>
    <g id="_light1_" data-name="&amp;lt;light1&amp;gt;">
      <circle class="cls-6" cx="263.3" cy="286.71" r="6.52"/>
      <circle class="cls-6" cx="235.91" cy="287.04" r="6.52"/>
      <g id="light-2" data-name="light">
        <polygon class="cls-21" points="251.53 295.82 261.25 295.82 261.58 296.51 264.82 296.51 264.92 294.27 266.17 294.22 266.8 293.86 266.8 292.83 259.32 292.83 259.32 293.78 259.98 294.15 261.2 294.15 261.2 294.91 251.51 294.91 251.51 293.21 247.74 293.21 247.74 294.88 238 294.88 238.02 294.14 238.94 294.14 239.41 293.79 239.43 292.8 232.12 292.8 232.12 293.79 232.38 294.14 233.93 294.14 233.91 296.03 233.93 296.43 237.36 296.43 237.88 295.75 247.71 295.76 247.71 297.35 248.34 297.63 248.39 298.47 247.65 392.32 246.94 394.15 244.4 395.85 244.54 397.68 254.14 397.65 254.42 395.78 252.1 394.26 251.11 392.25 251.27 367.4 251.06 297.71 251.53 297.45 251.53 295.82"/>
        <polygon class="cls-21" points="252.33 362.19 252.26 364.16 251.7 364.59 251.62 365.36 251.13 365.51 251.09 362.26 252.33 362.19"/>
        <polygon class="cls-21" points="246.75 362.12 246.82 364.09 247.39 364.52 247.46 365.29 247.95 365.43 248 362.19 246.75 362.12"/>
        <rect class="cls-21" x="251.27" y="366.97" width=".66" height="1.43"/>
        <rect class="cls-21" x="247.26" y="366.9" width=".66" height="1.36"/>
      </g>
    </g>
  </g>
</svg>