<?xml version="1.0" encoding="utf-8"?>
<!-- Generator: Adobe Illustrator 27.4.0, SVG Export Plug-In . SVG Version: 6.00 Build 0)  -->
<svg version="1.1" xmlns="http://www.w3.org/2000/svg" xmlns:xlink="http://www.w3.org/1999/xlink" x="0px" y="0px"
	 viewBox="0 0 1920 1080" style="enable-background:new 0 0 1920 1080;" xml:space="preserve">
<style type="text/css">
	.st0{fill:#F1F8FF;}
	.st1{fill:#F4FDFD;}
	.st2{fill:#CDCED3;}
	.st3{fill:#DBE0E6;}
	.st4{fill:#D0F1FC;}
	.st5{fill:#CEF3FF;}
	.st6{fill:#A4DBEC;}
	.st7{fill:#B1E3F4;}
	.st8{fill:#B1E3F3;}
	.st9{fill:#61ABC1;}
	.st10{fill:#6194AB;}
	.st11{fill:none;stroke:#6194AB;stroke-width:5.5;stroke-linecap:round;stroke-miterlimit:10;}
	.st12{fill:#6CA6B9;}
	.st13{fill:#6DADCB;}
	.st14{fill:none;stroke:#6DADCB;stroke-width:5.5;stroke-linecap:round;stroke-miterlimit:10;}
	.st15{fill:#CEF3FC;}
	.st16{fill:#7C8C96;}
	.st17{fill:none;stroke:#8B9DA7;stroke-width:5.5;stroke-miterlimit:10;}
	.st18{fill:#9FA6AE;}
	.st19{fill:#C3BDBF;}
	.st20{fill:#EAF6F2;}
	.st21{fill:#516670;}
	.st22{fill:#F94B50;}
	.st23{fill:#F7B459;}
	.st24{fill:#F85A4F;}
	.st25{fill:#1D1715;}
	.st26{fill:#D8CFCF;}
	.st27{fill:#4AA0B5;}
	.st28{fill:#FFFFFF;}
	.st29{fill:#C14745;}
	.st30{fill:#122237;}
	.st31{fill:#A9EBE1;}
	.st32{fill:#F4F4F4;}
	.st33{fill:#EBEAE9;}
	.st34{fill:#BDBEC2;}
	.st35{fill:#D4D3D2;}
	.st36{fill:#323948;}
	.st37{fill:#EE4926;}
	.st38{fill:#CA2D12;}
	.st39{fill:#CA290F;}
	.st40{fill:#1FB0E6;}
	.st41{fill:#E7C320;}
	.st42{fill:#F5AE29;}
</style>
<g id="Layer_1">
	<polygon class="st0" points="-8.5,-174.1 -8.5,366.4 1923.4,382.9 1925.5,-176.1 	"/>
	<path class="st1" d="M1154.5,276.3c0,0,377.3-161.5,367.8-273.3c0,0-1545.7,28.5-1549.9,196.2v312.6l1100.4,18.6L1154.5,276.3z"/>
	<g id="road1">
		<polygon class="st2" points="-6.9,828.2 1922.9,824 1927,1088.9 -11.1,1084.7 		"/>
		<polygon class="st3" points="-11.1,784 1924.9,792.4 1922.9,826.1 -11.1,830.3 		"/>
	</g>
	<polygon class="st4" points="297.5,221.9 351.3,221.9 351.3,275.8 378.2,275.8 378.2,246.8 444.5,246.8 444.5,524.2 295.4,524.2 	
		"/>
	<polyline class="st5" points="1372.1,323.4 1372.1,116.3 1357.6,116.3 1357.6,72.9 1270.6,72.9 1270.6,120.5 1260.3,122.6 
		1258.2,526.3 1374.2,526.3 1372.1,323.4 	"/>
	<polygon class="st6" points="949.7,381.4 982.6,381.4 982.8,528.4 941.4,528.4 	"/>
	<polygon class="st5" points="1412,188.8 1465.3,188.8 1465.3,284.1 1479.8,284.1 1479.8,327.5 1372.1,327.5 1372.1,282 1411.4,282 
			"/>
	<rect x="603.9" y="286.1" class="st5" width="55.9" height="74.5"/>
	<polygon class="st7" points="44.8,203.3 175.3,161.9 179.4,524.2 40.7,522.2 	"/>
	<polygon class="st8" points="475.5,225.8 603.9,184.4 603.9,526.1 479.7,526.1 	"/>
	<polygon class="st6" points="349.2,292.3 479.7,292.3 479.7,526.3 351.3,526.3 	"/>
	<polygon class="st5" points="682.6,282 746.8,282 746.8,201.2 808.9,201.2 808.9,528.4 686.7,528.4 	"/>
	<polygon class="st6" points="601.8,339.7 724,339.7 724,526.1 603.9,526.1 	"/>
	<polygon class="st5" points="177.4,288.2 260.2,288.2 260.2,524.2 179.4,524.2 	"/>
	<polygon class="st5" points="844.1,196.1 844.1,90.5 949.7,90.5 949.7,529.5 844.1,529.5 	"/>
	<polygon class="st8" points="982.8,149.5 1092.6,149.5 1092.9,207.4 1094.6,526.3 982.8,528.4 	"/>
	<polygon class="st5" points="1158.8,213.7 1158.8,325.5 1258.2,325.5 1258.2,526.3 1094.6,526.3 1092.8,219.9 	"/>
	<polygon class="st5" points="1556.4,161.9 1641.3,161.9 1641.3,528.4 1558.4,528.4 	"/>
	<polygon class="st7" points="1478.7,236.4 1607.1,236.4 1607.1,526.3 1476.7,526.3 	"/>
	<polygon class="st6" points="1589.5,308.9 1719.9,267.5 1719.9,528.4 1585.4,528.4 	"/>
	<polygon class="st5" points="1923.9,373.1 1888.7,373.1 1887.7,337.9 1717.9,338.9 1714.8,528.4 1920.8,527.4 	"/>
	<polygon class="st6" points="1834.9,403.1 1832.8,528.4 1923.9,528.4 1923.9,404.2 	"/>
	<polygon class="st6" points="1092.6,418.7 1196.1,418.7 1200.2,524.2 1094.6,526.3 	"/>
	<polygon class="st6" points="485.6,243.3 485.6,251.3 592.5,251.3 592.5,244 	"/>
	<polygon class="st6" points="486,260.5 486,268.5 592.9,268.5 592.9,261.3 	"/>
	<polygon class="st6" points="486.3,279.8 486.3,287.9 593.2,287.9 593.2,280.6 	"/>
	<polygon class="st6" points="486,298.5 486,306.5 592.9,306.5 592.9,299.2 	"/>
	<polygon class="st6" points="485.3,317.5 485.3,325.5 592.2,325.5 592.2,318.2 	"/>
	<polygon class="st6" points="484.9,335.7 484.9,343.8 591.8,343.8 591.8,336.5 	"/>
	<polygon class="st6" points="485.3,355.1 485.3,363.1 592.2,363.1 592.2,355.8 	"/>
	<polygon class="st6" points="485.6,374.4 485.6,382.4 592.5,382.4 592.5,375.2 	"/>
	<polygon class="st6" points="486.1,392.5 486.1,400.5 593,400.5 593,393.3 	"/>
	<polygon class="st6" points="486.1,413.2 486.1,421.2 593,421.2 593,414 	"/>
	<polygon class="st6" points="486.1,430.8 486.1,438.8 593,438.8 593,431.6 	"/>
	<polygon class="st6" points="485.6,449.5 485.6,457.5 592.5,457.5 592.5,450.2 	"/>
	<polygon class="st6" points="485.6,467.6 485.6,475.6 592.5,475.6 592.5,468.3 	"/>
	<polygon class="st6" points="485.1,487.2 485.1,495.3 592,495.3 592,488 	"/>
	<polygon class="st6" points="485.6,505.4 485.6,513.4 592.5,513.4 592.5,506.1 	"/>
	<polygon class="st6" points="994.5,162.5 994.5,170.5 1079.6,170.5 1079.6,163.3 	"/>
	<polygon class="st6" points="994.8,179.8 994.8,187.8 1079.9,187.8 1079.9,180.5 	"/>
	<polygon class="st6" points="995,199.1 995,207.1 1080.1,207.1 1080.1,199.9 	"/>
	<polygon class="st6" points="994.8,217.7 994.8,225.7 1079.9,225.7 1079.9,218.5 	"/>
	<polygon class="st6" points="994.2,236.7 994.2,244.7 1079.3,244.7 1079.3,237.5 	"/>
	<polygon class="st6" points="993.9,255 993.9,263 1079,263 1079,255.8 	"/>
	<polygon class="st6" points="994.2,274.3 994.2,282.3 1079.3,282.3 1079.3,275.1 	"/>
	<polygon class="st6" points="994.5,293.6 994.5,301.7 1079.6,301.7 1079.6,294.4 	"/>
	<polygon class="st6" points="994.9,311.8 994.9,319.8 1080,319.8 1080,312.5 	"/>
	<polygon class="st6" points="994.9,332.5 994.9,340.5 1080,340.5 1080,333.2 	"/>
	<polygon class="st6" points="994.9,350.1 994.9,358.1 1080,358.1 1080,350.8 	"/>
	<polygon class="st6" points="994.5,368.7 994.5,376.7 1079.6,376.7 1079.6,369.5 	"/>
	<polygon class="st6" points="994.5,386.8 994.5,394.8 1079.6,394.8 1079.6,387.6 	"/>
	<polygon class="st6" points="994.1,406.5 994.1,414.5 1079.2,414.5 1079.2,407.3 	"/>
	<polygon class="st6" points="994.5,424.6 994.5,432.6 1079.6,432.6 1079.6,425.4 	"/>
	<polygon class="st6" points="994.9,446.3 994.9,454.4 1080,454.4 1080,447.1 	"/>
	<polygon class="st6" points="994.5,465 994.5,473 1079.6,473 1079.6,465.8 	"/>
	<polygon class="st6" points="994.5,483.1 994.5,491.1 1079.6,491.1 1079.6,483.9 	"/>
	<polygon class="st6" points="994.1,502.8 994.1,510.8 1079.2,510.8 1079.2,503.5 	"/>
	<polygon class="st7" points="1273.1,128 1273.1,136 1358.2,136 1358.2,128.8 	"/>
	<polygon class="st7" points="1273.5,146.1 1273.5,154.1 1358.6,154.1 1358.6,146.9 	"/>
	<polygon class="st7" points="1273.9,167.9 1273.9,175.9 1359,175.9 1359,168.6 	"/>
	<polygon class="st7" points="1273.5,186.5 1273.5,194.5 1358.6,194.5 1358.6,187.3 	"/>
	<polygon class="st7" points="1273.5,204.6 1273.5,212.6 1358.6,212.6 1358.6,205.4 	"/>
	<polygon class="st6" points="1528.4,323.4 1528.4,346.2 1501.5,346.2 1501.5,526.3 1261.3,526.3 1262.3,322.4 	"/>
	<polygon class="st7" points="1273.1,224.3 1273.1,232.3 1358.2,232.3 1358.2,225.1 	"/>
	<polygon class="st7" points="1273.5,242.4 1273.5,250.4 1358.6,250.4 1358.6,243.2 	"/>
	<polygon class="st7" points="1272.5,262.1 1272.5,270.1 1357.6,270.1 1357.6,262.8 	"/>
	<polygon class="st6" points="148.4,393.8 146.3,524.2 276.7,526.3 276.7,395.9 	"/>
	<path class="st9" d="M56.2,276.8c20.8-11.1,14.9-33.1,35.7-43.5c11.7-5.8,28.2-6.1,35.7,1.6c6.1,6.2,1.9,13.2,7.8,18.6
		c9.2,8.4,24.9-3.7,38.8,1.6c11.4,4.3,6.9,15.9,21.7,41.9c12.6,22.1,21.4,24.7,20.2,35.7c-1.2,11.7-11.6,13-15.5,29.5
		c-3.1,13.1,2.4,16.6-1.6,24.8c-4.7,9.7-14.5,9.5-35.7,18.6c-26.2,11.3-24.3,17.2-41.9,21.7c-4.7,1.2-33.8,8.7-45-4.7
		c-7.9-9.4,0.8-19.8-7.8-31.1c-7.1-9.4-15.2-4.9-31.1-15.5c-4.6-3.1-21.4-14.4-21.7-29.5c-0.2-8.2,4.7-8.8,7.8-20.2
		c5.5-20.2-6.4-30.8,0-40.4C29.6,277.2,40.9,285,56.2,276.8z"/>
	<path id="lowTree2" class="st10" d="M1678.9,528.7l161.5,1.4c2.9,0.8,2.9-16.8-13.1-15.9c-3.1-18.3-9-27.5-17.9-26.9
		c-9.6-6.9-17.7-2.1-24.8,10.4c-19.6-12.9-32.5-16.6-39.3-11.7c-9.6,4.3-12.9,9.4-10.4,15.2l-9.7-0.7l-6.9,2.8
		c-7.4-6.1-14.4-7.2-20.7-2.1c-6,4.3-6.2,10.6-3.5,17.9L1678.9,528.7z"/>
	<path id="Cloud3" class="st5" d="M1693,112.2l122.2,0.7c0.7-7.8-2-14.8-14.5-19.3c-6.6-2.3-11.5-0.6-15.2,4.1
		c-5.9-8.6-14-12-24.2-10.4c-9.7,2.6-17.5,7.3-22.1,15.2c-4.1-6.9-10.1-9.2-17.9-6.9c-8.1,1-11.2,4.6-10.4,10.4
		c-2.7-1.3-6.4-2-13.1-0.7L1693,112.2z"/>
	<path id="cloud2" class="st5" d="M979.4,103.9H1165c2-10.1-0.2-18.5-18.6-20c-11.2-1.4-20.4-0.3-26.9,4.1
		c-10-7.3-22.3-11.8-37.3-13.1c-14.9,1.1-24.3,6.9-29,16.6c-10.8-5.4-21.3-8.3-31.1-5.5c-7.7-3.4-12,2.9-15.2,12.4
		c-3.2-5.8-8.8-4.9-15.9,0C984.5,95.6,981.6,99.1,979.4,103.9z"/>
	<path id="lowTree4" class="st5" d="M-7.3,980.2c23.4-0.8,46.4,10.4,69.1,29.6c40.4-43.5,56.9-42.3,69.1-23.2
		c12.2,19,46.7-3.6,36.6,52.8c28.8-0.6,38.5,22.9,30.5,23.2c11.2,15.6,7.5,19.5-2,19h-199L-7.3,980.2z"/>
	<path id="lowTree3" class="st10" d="M1666.1,1084c0.2-7.6,1.3-15,8.3-20.2c5-6.9,14.8-8.6,26.4-8.3c1.8-8.3,5-15.4,12.4-19.2
		c7.4-1.9,14-2.9,16,1c-9.6-21.7,7-32.7,19.7-34.7c9.4-7.8,22.9-6,38.3,0c9.5-15.5,20.3-27.6,34.7-30.5c26.9-5.2,45.7,7.4,55.4,39.9
		c12.9,6.3,21.5,3.2,31.1,2.1c9.4,2,12.5,11.4,7.8,30l5.2,1.6v38.8L1666.1,1084z"/>
	<line class="st11" x1="127.7" y1="304.8" x2="127.7" y2="509.8"/>
	<path class="st11" d="M155.1,356c0,0-14,22.2-24.8,17.4"/>
	<path class="st11" d="M91.7,377.8c-3.1,6.8,19.1,31.3,35.9,24.5"/>
	<path class="st11" d="M99.2,293.9c1.2,32.1,12.7,38.4,26.4,34.3"/>
	<g id="Tree1">
		<path class="st12" d="M775.8,297.9c9.5-4.6,20,4.7,26.2-1.4c5.4-5.3,2.2-17,1.4-20c-3-10.8-8.6-11.9-12.4-22.1
			c-0.8-2.2-6.5-17.5,0-26.2c8.5-11.4,29,0.4,42.1-12.4c7.3-7.1,3.5-13.4,11.7-20.7c8.1-7.2,23.2-11.4,31.1-5.5
			c12.6,9.5-2.3,38.9,11.7,49c2.7,1.9,3.1,0.8,16.6,3.5c19.4,3.8,29,5.7,32.4,10.4c8.3,11.3-9.8,28.4-1.4,42.1
			c6.1,9.8,18.8,6.3,22.1,15.2c3.8,10.1-11.9,16.7-12.4,33.8c-0.5,15.9,12.8,19.2,10.4,33.8c-1.6,9.3-9.1,20.8-19.3,24.8
			c-3.8,1.5-6.5,1.3-10.4,4.1c-6.9,5-5.6,10.5-9.7,14.5c-10.1,9.9-32.9-10.4-53.8-0.7c-8.4,3.9-6.3,7.9-15.2,12.4
			c-15.8,8-43.8,6-55.2-13.1c-6.1-10.2-6.3-27,0-38.7c2.3-4.3,5.1-7,4.1-10.4c-1.9-6.8-14.9-4.3-23.5-11
			C756.3,346.7,760,305.5,775.8,297.9z"/>
		<line class="st11" x1="856.5" y1="306.4" x2="856.5" y2="527.9"/>
		<path class="st11" d="M831,300.1c1,32.1,11,38.4,23,34.3"/>
		<path class="st11" d="M899,317.2c-9.8,28.9-23,42.5-39,43.7"/>
		<path class="st11" d="M819.8,365.3c8.9,16.4,20.9,26.1,36.1,29.5"/>
		<path class="st11" d="M896.2,397.9c-8.9,16.4-20.9,26.1-36.1,29.5"/>
	</g>
	<g id="Tree3">
		<path class="st9" d="M1756.2,217.8c12.4-13.7-4.7-37.9,7.8-48.1c8.4-6.9,25.8-4,34.2,4.7c7.2,7.5,2.8,14.4,9.3,20.2
			c10.6,9.4,26.9-4.3,41.9,4.7c8,4.8,14.2,15.2,14,24.8c-0.4,16.9-20.2,21.3-21.7,41.9c-0.2,3.1-0.9,12.6,4.7,17.1
			c6.5,5.1,14.6-1.8,26.4,1.6c8.9,2.5,17.1,10,20.2,18.6c5.8,16.2-6.9,35.5-17.1,45c-9.2,8.6-15.8,8.8-17.1,15.5
			c-1.9,9.8,10.9,15.3,10.9,28c0,8-5.1,13.7-10.9,20.2c-11.3,12.7-33.1,26.5-49.7,20.2c-5.8-2.2-5.6-4.8-15.5-9.3
			c-2.9-1.3-11.5-5.2-21.7-6.2c-19.8-2-24.2,8.7-35.7,4.7c-10.5-3.7-7.7-13-21.7-21.7c-12-7.4-18.3-3.4-24.8-10.9
			c-6-6.8-7.5-17.9-4.7-26.4c4.1-12.3,15.1-12.9,15.5-21.7c0.4-8.1-8.9-9.5-14-23.3c-0.8-2.2-6.1-17.2,0-23.3c8-8,29.4,5,32.6,0
			c2.8-4.5-14.8-14.2-18.6-34.2c-0.6-3-3.5-18.2,4.7-28C1717.7,216.5,1743.7,231.7,1756.2,217.8z"/>
		<line class="st11" x1="1782.1" y1="306.8" x2="1782.1" y2="522.2"/>
		<path class="st11" d="M1821.9,336.9c-4.7,25-18.3,38.4-38.3,43.5"/>
		<path class="st11" d="M1804.3,306.3c-2.1,11.3-8.4,17.4-17.6,19.7"/>
		<path class="st11" d="M1748.4,314.6c3.7,18.5,14.6,28.3,30.5,32.1"/>
		<path class="st11" d="M1739.1,386.6c8.7,24.9,22.7,36.8,41.4,37.3"/>
	</g>
	<g id="Tree2">
		<path class="st13" d="M1346.6,433.8c4-3,6.1-1.2,10.4-4.1c5.8-3.9,5.4-9.4,9-9.7c3.7-0.3,8.3,5.5,8.3,5.5l0,0c0,0,0.9,5.9,4.1,9
			c3,2.8,5.7,0.8,8.3,3.5c2.7,2.7,3.1,8.3,0.7,11c-1.8,2.1-4.3,1.5-12.4,1.4c-12.7-0.2-16,1.2-24.8-0.7c-7.5-1.6-8.6-3.3-9-4.1
			C1339.5,442.1,1342.8,436.7,1346.6,433.8z"/>
		<path class="st13" d="M1314.5,418.1c8.2,2.5,11.4,0.3,14.5,3.5c3.1,3.1,3.8,9.1,1.4,12.4c-1.1,1.4-2.8,2.5-15.2,2.8
			c-15,0.3-19-1-21.4-2.1c-4.1-1.8-9.5-5.2-9-7.6c0.5-2.4,6.7-1,11-5.5c3.4-3.6,2.1-6.9,4.8-8.3
			C1303.8,411.8,1306.3,415.7,1314.5,418.1z"/>
		<path class="st13" d="M1268.6,300.1c4.1-10,27.4-3.1,34.2-15.5c4.6-8.4-4.1-14.8,0-31.1c1-3.8,4-15.9,12.4-18.6
			c7-2.3,10.3,4.4,20.2,3.1c9.5-1.2,10.6-7.9,18.6-7.8c7.5,0.1,13.9,6,17.1,10.9c5.5,8.5,0.3,12.9,4.7,21.7
			c5.9,12.1,18.3,9.6,23.3,21.7c2.3,5.6,2.4,12.8,0,18.6c-3.9,9.6-12.6,10.5-12.4,17.1c0.1,6.7,9.3,14,9.3,14c0,0-2.3,11,0,18.6
			c3,9.8,12.2,9,15.5,17.1c3.8,9.2-2.1,24.5-12.4,31.1c-14.8,9.4-33.5-22.3-60.6-3.1c-16,11.4-17.9,6.9-32.6,6.2
			c-3.2-0.1-35.7-2-46.6-24.8c-1-2.1-7.1-14.9-1.6-24.8c6.5-11.7,22.8-8,26.4-17.1C1288.8,325.5,1264.1,310.9,1268.6,300.1z"/>
		<path class="st10" d="M1238,308.9c-7-17,6.4-24.9,17.1-31.1c5.3-3.1,12.8-4.2,18.6-1.6c5.3,2.4,5.4,6.2,12.4,15.5
			c2.9,3.9,9.3,12.2,18.6,18.6c12,8.2,17.2,5.2,20.2,10.9c5,9.5-9.1,19-4.7,32.6c2.5,7.6,7.8,7.4,10.9,17.1c0.9,2.9,3.6,11.4,0,18.6
			c-4.1,8.4-12.4,6.5-31.1,17.1c-12.6,7.1-11.8,9.7-20.2,12.4c-8.8,2.9-25.3,5.3-32.6-3.1c-6.7-7.7-6.1-14.4-6.2-24.8
			c-0.2-12-19.7-7.2-24.8-9.3c-19.2-7.8-16-43-6.2-49.7l0,0C1230.2,326,1241,316.2,1238,308.9z"/>
		<line class="st14" x1="1270.6" y1="354.2" x2="1272.7" y2="524"/>
		<path class="st11" d="M1372.6,346.7c-4.3,12.3-15,17.3-29,18.6"/>
		<path class="st11" d="M1372.6,443c-4.1,13-14.2,18.4-27.4,19.8"/>
		<path class="st11" d="M1309.5,436.8c4.3,12.3,15,17.3,29,18.6"/>
		<line class="st11" x1="1343.1" y1="320.6" x2="1343.1" y2="525.6"/>
		<path class="st14" d="M1303.2,371.8c-5.9,15.2-17.1,22.1-31.1,24.8"/>
		<path class="st14" d="M1241.6,362.7c8.6,12.9,18,19.3,28.2,19.4"/>
	</g>
	<polygon class="st7" points="256,337.7 256,526.1 380.3,526.1 380.3,339.7 	"/>
	<path class="st10" d="M248.2,530.6c5.5,0.1,7.9-6.8,3.6-10.2c-4.6-3.7-10.2-6.4-14.8-4.1c-10.4,5.2-14,4-12.4-1
		c3.5-11.2-1.8-18.2-6.2-18.6c-3-0.3-1.5-7.4-14.9-4.9c0,0-2.7,1.6-4.1-4c-1-4-5.6-9-19.6-6.2c-1.7,0.4-3.2,1.5-4,3.1
		c-1.8,3.6-5.2,9.7-8.2,8.9c-4.1-1,7.2-10.4-10.4-8.3s-17.6,2.1-17.6,2.1s9.2-3.3,0,0c-7.6,2.7-6.7-9.7-16.6-9.3
		c-3.5-0.3-7.8-0.4-12.4,3.1c-9.7,7.2-11.4,7.2-17.6,4.1c-6.2-3.1-17.6-13.5-21.7-8.3c-4.1,5.2-11.6,4.1-13.5,11.4
		c-2.4,9.3-2,13-12.4,10.4c-11.4-2.9-7.5,3.4-11.4,3.1s-8.3,2.1-12.4,10.4c-4.1,8.3-7.2,11.4-10.4,13.5
		C8.7,527.3,195.6,529.9,248.2,530.6z"/>
	<path id="lowTree1" class="st6" d="M719.5,528.9l170.6,1.5c3.1,0.8,3.1-17.7-13.9-16.8c-3.3-19.3-9.5-29.1-19-28.4
		c-10.1-7.3-18.7-2.2-26.3,10.9c-20.7-13.6-34.3-17.5-41.6-12.4c-10.2,4.5-13.6,9.9-10.9,16l-10.2-0.7l-7.3,2.9
		c-7.9-6.4-15.2-7.6-21.9-2.2c-6.3,4.6-6.6,11.2-3.6,19L719.5,528.9z"/>
	<path id="cloud1" class="st15" d="M261.2,107.5l188.4-2.1c5.7-7.2,4.1-13.1-11.4-16.6c-7.9-1.2-13,0.3-14.5,5.2
		c-11-15.5-22.4-23.2-34.2-20.7c-12.1,0.2-20.9,6.3-28,15.5c-9.9-15.4-37.3-20.3-38.3-16.6c-3-4.2-31,4.9-34.2,19.7
		c-7.9-5.8-14.5-6.2-19.7-1C260.6,94,259.8,100.3,261.2,107.5z"/>
	<g id="road2_00000175293161480023841160000001636275545641917059_">
		<polygon id="road2" class="st16" points="-11.1,810 1920.8,810 1920.8,592.6 -15.2,592.6 		"/>
		<line class="st17" x1="1920.6" y1="704.3" x2="-7.1" y2="704.3"/>
	</g>
	<g id="road3">
		<polygon class="st18" points="1924.9,527.9 1927,582.7 -11.1,582.7 -11.1,524 		"/>
		<polygon class="st19" points="1929.1,571.9 -11.1,571.9 -11.1,594.6 1927,594.6 		"/>
	</g>
	<g id="_x3C_light2_x3E_">
		<circle class="st20" cx="1616.8" cy="349.5" r="12"/>
		<circle class="st20" cx="1566.6" cy="350.1" r="12"/>
		<g id="light">
			<polygon class="st21" points="1595.3,366.2 1613.1,366.2 1613.7,367.4 1619.6,367.4 1619.8,363.3 1622.1,363.2 1623.3,362.6 
				1623.3,360.7 1609.5,360.7 1609.5,362.4 1610.7,363.1 1613,363.1 1613,364.5 1595.2,364.5 1595.2,361.4 1588.3,361.4 
				1588.3,364.4 1570.5,364.4 1570.5,363.1 1572.2,363.1 1573,362.4 1573.1,360.6 1559.7,360.6 1559.7,362.4 1560.1,363.1 
				1563,363.1 1562.9,366.6 1563,367.3 1569.3,367.3 1570.2,366 1588.2,366.1 1588.2,369 1589.4,369.5 1589.5,371 1588.1,543.1 
				1586.8,546.4 1582.2,549.5 1582.4,552.9 1600,552.8 1600.6,549.4 1596.3,546.6 1594.5,542.9 1594.8,497.4 1594.4,369.6 
				1595.3,369.2 			"/>
			<polygon class="st21" points="1596.7,487.8 1596.6,491.5 1595.6,492.2 1595.4,493.7 1594.5,493.9 1594.4,488 			"/>
			<polygon class="st21" points="1586.5,487.7 1586.6,491.3 1587.7,492.1 1587.8,493.5 1588.7,493.8 1588.8,487.8 			"/>
			<rect x="1594.8" y="496.6" class="st21" width="1.2" height="2.6"/>
			<rect x="1587.4" y="496.5" class="st21" width="1.2" height="2.5"/>
		</g>
	</g>
	<g id="_x3C_light1_x3E_">
		<circle class="st20" cx="455.1" cy="349.5" r="12"/>
		<circle class="st20" cx="404.9" cy="350.1" r="12"/>
		<g id="light_00000026874831925579276850000006188506867655533458_">
			<polygon class="st21" points="433.5,366.2 451.3,366.2 451.9,367.5 457.9,367.5 458.1,363.4 460.3,363.3 461.5,362.6 
				461.5,360.7 447.8,360.7 447.8,362.5 449,363.2 451.2,363.2 451.2,364.5 433.5,364.5 433.5,361.4 426.6,361.4 426.6,364.5 
				408.7,364.5 408.7,363.1 410.4,363.1 411.3,362.5 411.3,360.7 397.9,360.7 397.9,362.5 398.4,363.1 401.2,363.1 401.2,366.6 
				401.2,367.3 407.5,367.3 408.5,366.1 426.5,366.1 426.5,369 427.7,369.5 427.8,371.1 426.4,543.1 425.1,546.5 420.4,549.6 
				420.7,553 438.3,552.9 438.8,549.5 434.5,546.7 432.7,543 433,497.4 432.6,369.7 433.5,369.2 			"/>
			<polygon class="st21" points="435,487.9 434.8,491.5 433.8,492.3 433.7,493.7 432.8,494 432.7,488 			"/>
			<polygon class="st21" points="424.8,487.8 424.9,491.4 425.9,492.2 426,493.6 427,493.8 427,487.9 			"/>
			<rect x="433" y="496.6" class="st21" width="1.2" height="2.6"/>
			<rect x="425.7" y="496.5" class="st21" width="1.2" height="2.5"/>
		</g>
	</g>
</g>
<g id="sports-car">
	<path class="st22" d="M1766.4,961.4l-0.2,2l-0.1,1.4l-1.3,12.8l-0.1,1.4l-0.9,8l0,0.3l-0.2,1.6l-0.2,1.5l-0.5,4.6
		c-0.1,1.3-0.4,2.5-0.8,3.8c-1.8,5.3-6,9.5-11.5,11.3c-0.1,0-0.1,0-0.2,0.1l-15.1,2.6l-1.6,0.5l-0.5,0.2h-351.6
		c-4.2,0-8-2.7-9.2-6.7l-2.3-7.5c-2.5-45.4,41.8-42.3,123.5-47c34.6-23.1,45.8-30.5,55.6-31.1c1.4-0.1,2.7,0,4,0.2l-31.3,32
		l126.6-6.9l3.2-14.6l34.3,9.5l3.5,0.2l5,0.4l3.1,0.2l5,0.3l3.1,0.2l5,0.4l3.1,0.2l5,0.3l3.1,0.2l5,0.3l3.1,0.2l5,0.3l10.8,0.7
		C1755.7,945.2,1766.8,957.4,1766.4,961.4z"/>
	<path class="st23" d="M1396.2,963.9c-11,4-17.8,8.5-21.1,20.6c-0.5,2,1.1,3.9,3.1,3.8c0.5,0,0.1,0,4.8-0.2c4-0.1,7.4-3,8.3-6.9
		c1-4.6,3.7-9.6,7-14.7C1399.3,965.2,1397.8,963.3,1396.2,963.9z"/>
	<g>
		<path class="st24" d="M1523,999.6c0.1,3.5,2.9,6.2,6.4,6.2h81.5c17.7,0,32.6-13,34.7-30.3l3-29.2l-126.6,6.9L1523,999.6z"/>
	</g>
	<path class="st25" d="M1480.5,1004v9.4h-68.9v-9.4c0-17,12.7-31.1,29.2-33.6c1.7-0.2,3.5-0.4,5.2-0.4
		C1465.1,970,1480.5,985.2,1480.5,1004z"/>
	<path class="st25" d="M1731.2,1004v9.4h-68.9v-9.4c0-17,12.7-31.1,29.2-33.6c1.7-0.2,3.5-0.4,5.2-0.4
		C1715.8,970,1731.2,985.2,1731.2,1004z"/>
	<path class="st26" d="M1641.3,956.1c0.1,1.8-1.4,3.4-3.3,3.5l-12.8,0.4c-1.9,0.1-3.4-1.4-3.5-3.2l0,0c-0.1-1.8,1.4-3.4,3.3-3.5
		l12.8-0.4C1639.6,952.8,1641.2,954.3,1641.3,956.1L1641.3,956.1z"/>
	<path class="st27" d="M1387.2,999.1H1370l0,0l2.3,7.5c1.2,4,5,6.7,9.2,6.7h16.3l-2.6-8.4C1394.1,1001.5,1390.9,999.1,1387.2,999.1z
		"/>
	<path class="st27" d="M1761.4,1000.3c-2,4.5-5.9,8-10.8,9.6c-0.1,0-0.1,0-0.2,0.1l-15.1,2.6l-1.6,0.5l1.7-7.6c1.3-6,4.5-7,11.9-7
		h13C1761.1,998.6,1761.7,999.5,1761.4,1000.3z"/>
	<path class="st28" d="M1764.8,963.4c0.7,0,1.3,0.6,1.2,1.4l0,0l-1.3,12.8l-0.1,1.4l-0.9,8l0,0.3l-0.2,1.6l0,0.4
		c-0.1,0.6-0.6,1.1-1.2,1.1h0c-1.9,0-3.6-0.8-4.8-2.2c-1.2-1.4-1.7-3.3-1.3-5.1l1.4-14.6c0-0.1,0-0.1,0-0.2c0.6-2.8,3.2-4.8,6.1-4.8
		H1764.8z"/>
	<path class="st29" d="M1764.7,964.7c0.7,0,1.3,0.6,1.2,1.4l-1.2,11.4l-0.1,1.4l-0.9,8l0,0.3l-0.1,0.6c-0.1,0.6-0.6,1.1-1.2,1.1
		h-0.4c-3.1,0-5.3-2.7-4.8-5.7l1.5-14.5c0.5-2.3,2.4-3.9,4.7-3.9H1764.7z"/>
	<path class="st30" d="M1518.9,953.8c-0.7,4.4,3.8,4.9,7.1,5.4c0.4,0.1,0.9,0.1,1.3,0l-2.3-16.3C1522.1,944,1519.5,950,1518.9,953.8
		z"/>
	<path class="st31" d="M1539.7,923.5c-8.8,3.8-21.6,12.3-46.1,28.6h17.2l33.7-27.3c0.5-0.4,0.2-1.3-0.4-1.3H1539.7z"/>
	<g>
		<path class="st30" d="M1694.5,941.8l-0.4,5.5c-0.1,1.4-1.3,2.4-2.7,2.3c-1.3-0.1-2.3-1.2-2.3-2.5c0-0.1,0-0.1,0-0.2l0.4-5.5
			L1694.5,941.8z"/>
		<path class="st30" d="M1702.6,942.3l-0.5,5.6c-0.1,1.4-1.3,2.4-2.7,2.3c-1.3-0.1-2.3-1.2-2.3-2.5c0-0.1,0-0.1,0-0.2l0.4-5.5
			L1702.6,942.3z"/>
		<path class="st30" d="M1710.7,942.9l-0.5,5.7c-0.1,1.4-1.3,2.4-2.7,2.3c-1.3-0.1-2.3-1.2-2.3-2.5c0-0.1,0-0.1,0-0.2l0.5-5.6
			L1710.7,942.9z"/>
		<path class="st30" d="M1718.7,943.5l-0.5,5.7c-0.1,1.4-1.3,2.4-2.7,2.3c-1.3-0.1-2.3-1.2-2.3-2.5c0-0.1,0-0.1,0-0.2l0.5-5.7
			L1718.7,943.5z"/>
		<path class="st30" d="M1726.8,944l-0.5,5.8c-0.1,1.4-1.3,2.4-2.7,2.3c-1.3-0.1-2.3-1.2-2.3-2.5c0-0.1,0-0.1,0-0.2l0.5-5.8
			L1726.8,944z"/>
		<path class="st30" d="M1734.9,944.6l-0.5,5.9c-0.1,1.4-1.3,2.4-2.7,2.3c-1.3-0.1-2.3-1.2-2.3-2.5c0-0.1,0-0.1,0-0.2l0.5-5.8
			L1734.9,944.6z"/>
	</g>
	<g>
		<path class="st32" d="M1433.9,1004.5c0,6.6,5.4,12,12.2,12c6.7,0,12.2-5.4,12.2-12c0-6.7-5.5-12-12.2-12
			C1439.3,992.5,1433.9,997.9,1433.9,1004.5z"/>
		<path class="st25" d="M1446.1,974.3c-16.9,0-30.6,13.5-30.6,30.2c0,16.7,13.7,30.2,30.6,30.2c16.9,0,30.6-13.5,30.6-30.2
			C1476.7,987.8,1463,974.3,1446.1,974.3z M1446.1,1025c-11.5,0-20.8-9.2-20.8-20.5c0-11.3,9.3-20.5,20.8-20.5s20.8,9.2,20.8,20.5
			C1466.9,1015.8,1457.6,1025,1446.1,1025z"/>
		<path class="st26" d="M1424.6,1004.5c0,11.7,9.6,21.2,21.5,21.2c11.9,0,21.5-9.5,21.5-21.2c0-11.7-9.6-21.2-21.5-21.2
			C1434.2,983.3,1424.6,992.8,1424.6,1004.5z M1436.2,1010.9c-0.8-1.2-1.4-2.6-1.7-4.1c-0.1-0.7-0.2-1.5-0.2-2.3
			c0-0.8,0.1-1.7,0.3-2.5c0.3-1.5,0.9-2.8,1.7-4c0.9-1.3,2.1-2.5,3.4-3.3c1.2-0.8,2.6-1.4,4.1-1.7c0.8-0.2,1.6-0.2,2.4-0.2
			c0.8,0,1.6,0.1,2.4,0.2c1.5,0.3,2.8,0.9,4.1,1.7c1.4,0.9,2.5,2,3.4,3.3c0.8,1.2,1.4,2.6,1.7,4c0.2,0.8,0.3,1.6,0.3,2.5
			c0,0.8-0.1,1.5-0.2,2.3c-0.3,1.5-0.9,2.9-1.7,4.1c-0.9,1.3-2,2.5-3.4,3.4c-1.2,0.8-2.6,1.4-4.2,1.7c-0.8,0.2-1.6,0.2-2.4,0.2
			c-0.8,0-1.6-0.1-2.4-0.2c-1.5-0.3-2.9-0.9-4.2-1.7C1438.2,1013.4,1437,1012.2,1436.2,1010.9z M1434.1,989.2c2.7-2.1,6-3.5,9.6-3.9
			v5.8c-2,0.3-3.8,1.1-5.5,2.2L1434.1,989.2z M1448.5,985.3c3.6,0.4,6.9,1.8,9.6,3.9l-4.1,4.1c-1.6-1.1-3.5-1.9-5.5-2.2V985.3z
			 M1461.5,992.6c2.1,2.7,3.6,5.9,4,9.5h-5.8c-0.4-2-1.2-3.8-2.3-5.4L1461.5,992.6z M1465.5,1006.8c-0.4,3.6-1.8,6.8-4,9.5l-4.1-4.1
			c1.1-1.6,1.9-3.4,2.3-5.4H1465.5z M1458.2,1019.7c-2.7,2.1-6,3.5-9.7,4v-5.8c2-0.4,3.9-1.1,5.5-2.3L1458.2,1019.7z M1443.7,1023.7
			c-3.6-0.4-6.9-1.9-9.7-4l4.1-4.1c1.6,1.1,3.5,1.9,5.5,2.3V1023.7z M1430.6,1016.3c-2.1-2.7-3.5-6-4-9.5h5.8c0.3,2,1.1,3.8,2.3,5.4
			L1430.6,1016.3z M1426.7,1002.1c0.5-3.5,1.9-6.8,4-9.5l4.1,4.1c-1.1,1.6-1.9,3.4-2.3,5.4H1426.7z"/>
	</g>
	<g>
		<path class="st32" d="M1684.9,1004.5c0,6.6,5.4,12,12.2,12c6.7,0,12.2-5.4,12.2-12c0-6.7-5.5-12-12.2-12
			C1690.4,992.5,1684.9,997.9,1684.9,1004.5z"/>
		<path class="st25" d="M1697.1,974.3c-16.9,0-30.6,13.5-30.6,30.2c0,16.7,13.7,30.2,30.6,30.2c16.9,0,30.6-13.5,30.6-30.2
			C1727.7,987.8,1714,974.3,1697.1,974.3z M1697.1,1025c-11.5,0-20.8-9.2-20.8-20.5c0-11.3,9.3-20.5,20.8-20.5
			c11.5,0,20.8,9.2,20.8,20.5C1717.9,1015.8,1708.6,1025,1697.1,1025z"/>
		<path class="st26" d="M1675.6,1004.5c0,11.7,9.6,21.2,21.5,21.2c11.9,0,21.5-9.5,21.5-21.2c0-11.7-9.6-21.2-21.5-21.2
			C1685.2,983.3,1675.6,992.8,1675.6,1004.5z M1687.2,1010.9c-0.8-1.2-1.4-2.6-1.7-4.1c-0.1-0.7-0.2-1.5-0.2-2.3
			c0-0.8,0.1-1.7,0.3-2.5c0.3-1.5,0.9-2.8,1.7-4c0.9-1.3,2.1-2.5,3.4-3.3c1.2-0.8,2.6-1.4,4.1-1.7c0.8-0.2,1.6-0.2,2.4-0.2
			c0.8,0,1.6,0.1,2.4,0.2c1.5,0.3,2.8,0.9,4.1,1.7c1.4,0.9,2.5,2,3.4,3.3c0.8,1.2,1.4,2.6,1.7,4c0.2,0.8,0.3,1.6,0.3,2.5
			c0,0.8-0.1,1.5-0.2,2.3c-0.3,1.5-0.9,2.9-1.7,4.1c-0.9,1.3-2,2.5-3.4,3.4c-1.2,0.8-2.6,1.4-4.2,1.7c-0.8,0.2-1.6,0.2-2.4,0.2
			c-0.8,0-1.6-0.1-2.4-0.2c-1.5-0.3-2.9-0.9-4.2-1.7C1689.2,1013.4,1688,1012.2,1687.2,1010.9z M1685.1,989.2c2.7-2.1,6-3.5,9.6-3.9
			v5.8c-2,0.3-3.8,1.1-5.5,2.2L1685.1,989.2z M1699.5,985.3c3.6,0.4,6.9,1.8,9.6,3.9l-4.1,4.1c-1.6-1.1-3.5-1.9-5.5-2.2V985.3z
			 M1712.5,992.6c2.1,2.7,3.6,5.9,4,9.5h-5.8c-0.4-2-1.2-3.8-2.3-5.4L1712.5,992.6z M1716.5,1006.8c-0.4,3.6-1.8,6.8-4,9.5l-4.1-4.1
			c1.1-1.6,1.9-3.4,2.3-5.4H1716.5z M1709.2,1019.7c-2.7,2.1-6,3.5-9.7,4v-5.8c2-0.4,3.9-1.1,5.5-2.3L1709.2,1019.7z M1694.7,1023.7
			c-3.6-0.4-6.9-1.9-9.7-4l4.1-4.1c1.6,1.1,3.5,1.9,5.5,2.3V1023.7z M1681.7,1016.3c-2.1-2.7-3.5-6-4-9.5h5.8c0.3,2,1.1,3.8,2.3,5.4
			L1681.7,1016.3z M1677.7,1002.1c0.5-3.5,1.9-6.8,4-9.5l4.1,4.1c-1.1,1.6-1.9,3.4-2.3,5.4H1677.7z"/>
	</g>
</g>
<g id="ambulence">
	<path class="st33" d="M798.8,959.2v47.8H934V883.3l-56.2,0c-8.9,0-16.6,6.3-18.5,15l-8.7,37.1l-38.5,8.1c-1.9,0.3-3.7,1-5.3,1.9
		c-1.8,1-3.3,2.4-4.5,3.9C800.1,952,798.8,955.4,798.8,959.2z"/>
	<path class="st34" d="M922.6,936v-46.5l-40.2,0c-5.9,0-11.1,4.2-12.3,10l-8.6,36.6H922.6z"/>
	<path class="st35" d="M846.6,1007h69.3c-1.1-18.2-16.2-32.7-34.7-32.7C862.8,974.3,847.7,988.8,846.6,1007z"/>
	
		<rect x="883.6" y="877.8" transform="matrix(-1 -4.488910e-11 4.488910e-11 -1 1803.6185 1761.37)" class="st36" width="36.4" height="5.8"/>
	<path class="st37" d="M885.6,877.8H918v-1.5c0-8.9-7.2-16.2-16.2-16.2l0,0c-8.9,0-16.2,7.2-16.2,16.2V877.8z"/>
	<path class="st38" d="M897.4,860.1h7.7c-6.5,0-11.7,5.2-11.7,11.7v6h-7.7v-6C885.6,865.4,890.9,860.1,897.4,860.1z"/>
	<rect x="934" y="850.1" class="st33" width="256.1" height="157"/>
	<polygon class="st37" points="938.8,972 938.8,954.7 1025.7,954.7 1025.7,954.7 1025.7,954.7 1190.1,954.7 1190.1,972 	"/>
	<rect x="934" y="850.1" class="st35" width="4.9" height="157"/>
	<rect x="934" y="954.7" class="st39" width="4.9" height="17.3"/>
	<g>
		<circle class="st36" cx="881.3" cy="1009.1" r="29"/>
		
			<ellipse transform="matrix(0.7071 -0.7071 0.7071 0.7071 -455.4072 918.7109)" class="st28" cx="881.3" cy="1009.1" rx="17.4" ry="17.4"/>
		
			<ellipse transform="matrix(0.9925 -0.1222 0.1222 0.9925 -116.6891 115.2372)" class="st36" cx="881.3" cy="1009.1" rx="10.9" ry="10.9"/>
	</g>
	<path class="st35" d="M1081,1007h69.3c-1.1-18.2-16.2-32.7-34.7-32.7S1082.1,988.8,1081,1007z"/>
	<g>
		<circle class="st36" cx="1115.7" cy="1009.1" r="29"/>
		
			<ellipse transform="matrix(0.7071 -0.7071 0.7071 0.7071 -386.7579 1084.4448)" class="st28" cx="1115.7" cy="1009.1" rx="17.4" ry="17.4"/>
		<circle class="st36" cx="1115.7" cy="1009.1" r="10.9"/>
	</g>
	
		<rect x="1176.5" y="854.9" transform="matrix(-1 -4.494461e-11 4.494461e-11 -1 2361.3152 1718.1097)" class="st37" width="8.3" height="8.3"/>
	
		<rect x="1165.2" y="854.9" transform="matrix(-1 -4.494417e-11 4.494417e-11 -1 2338.6719 1718.1097)" class="st40" width="8.3" height="8.3"/>
	
		<rect x="956" y="854.9" transform="matrix(-1 -4.472523e-11 4.472523e-11 -1 1920.2046 1718.1097)" class="st37" width="8.3" height="8.3"/>
	
		<rect x="944.6" y="854.9" transform="matrix(-1 -4.516399e-11 4.516399e-11 -1 1897.5614 1718.1097)" class="st40" width="8.3" height="8.3"/>
	
		<rect x="972.4" y="887.2" transform="matrix(-1 -4.485535e-11 4.485535e-11 -1 1992.6859 1822.28)" class="st34" width="47.9" height="47.9"/>
	<path class="st37" d="M1120.5,907.5c0,14.8,12,26.7,26.7,26.7c14.8,0,26.7-12,26.7-26.7c0-14.8-12-26.7-26.7-26.7
		C1132.4,880.7,1120.5,892.7,1120.5,907.5z M1130,901.9h11.6v-11.6h11.2v11.6h11.6v11.2h-11.6v11.6h-11.2v-11.6H1130V901.9z"/>
</g>
<g id="school-bus">
	<path class="st41" d="M154.9,1003.2c0.1-1,0.3-13.6,0-41c-0.1-9,5.5-17.2,13.8-20.4c11.6-4.5,22.7-9.5,27-11.4l14.2-63.3h-9.5
		l2-8.5c1.2-5.2,5.8-8.8,11.1-8.8h2.7h72.7h270c1.8,0,3.2,1.5,3.2,3.2V1004c0,0.9-0.3,1.7-0.9,2.3c-0.6,0.6-1.4,0.9-2.3,0.9
		c0,0,0,0,0,0c-10.6,0-38,0-51.5-0.1c-22,0-47.3-0.1-74-0.1c-50.2-0.1-105.3-0.1-153-0.1c-28.1,0-53.6,0-74,0
		c-27.9,0.1-46.1,0.1-48.1,0.3h0c-0.1,0-0.3,0-0.4,0c-1.1,0-2.1-0.5-2.7-1.4C154.8,1005.1,154.7,1004.1,154.9,1003.2z"/>
	<polygon class="st33" points="273.5,871 222.7,871 210.8,923.7 273.5,923.7 	"/>
	<g>
		<rect x="491.8" y="870.2" class="st33" width="56.4" height="52.8"/>
		<rect x="423.7" y="870.2" class="st33" width="56.4" height="52.8"/>
		<rect x="355.7" y="870.2" class="st33" width="56.4" height="52.8"/>
		<rect x="287.7" y="870.2" class="st33" width="56.4" height="52.8"/>
	</g>
	<path class="st36" d="M191.4,980.9h-41.7v10.3c0,9.3,7.5,16.8,16.8,16.8h24.9V980.9z"/>
	<g>
		<path class="st42" d="M436.6,1006.7c0,0.1,0,0.2,0,0.3c28.1,0,53.6,0,74,0c0-0.1,0-0.2,0-0.4c0-20.4-16.6-37-37-37
			C453.1,969.7,436.6,986.3,436.6,1006.7z"/>
		<path class="st42" d="M209.6,1006.7c0,0.2,0,0.3,0,0.5c22,0,47.3-0.1,74-0.1c0-0.1,0-0.3,0-0.4c0-20.4-16.6-37-37-37
			C226.2,969.7,209.6,986.3,209.6,1006.7z"/>
	</g>
	<g>
		<circle class="st36" cx="473.5" cy="1006.7" r="29.8"/>
		<circle class="st28" cx="473.5" cy="1006.7" r="17.9"/>
		
			<ellipse transform="matrix(0.2298 -0.9732 0.9732 0.2298 -614.9932 1236.2445)" class="st36" cx="473.5" cy="1006.7" rx="8.7" ry="8.7"/>
	</g>
	<g>
		<circle class="st36" cx="246.6" cy="1006.7" r="29.8"/>
		<circle class="st28" cx="246.6" cy="1006.7" r="17.9"/>
		
			<ellipse transform="matrix(0.7071 -0.7071 0.7071 0.7071 -639.5995 469.1926)" class="st36" cx="246.6" cy="1006.7" rx="8.7" ry="8.7"/>
	</g>
	<rect x="209" y="928.2" class="st36" width="353.5" height="8.7"/>
	<rect x="205.9" y="961" class="st36" width="356.1" height="3.4"/>
	<g>
		<path class="st36" d="M334,951.9c0.1,1,0.5,1.9,1.7,1.9c1.1,0,1.5-0.7,1.5-1.6c0-1-0.5-1.6-2.1-2.4c-2.1-1-3-1.9-3-3.8
			c0-2,1.3-3.4,3.6-3.4c2.8,0,3.5,1.9,3.6,3.5H337c-0.1-0.7-0.2-1.8-1.4-1.8c-0.9,0-1.3,0.6-1.3,1.4c0,0.9,0.4,1.3,1.9,2
			c2.2,1,3.3,2,3.3,4.1c0,2-1.2,3.6-3.9,3.6c-2.9,0-3.8-1.9-3.8-3.7H334z"/>
		<path class="st36" d="M348.4,951.7c-0.1,0.6-0.3,3.9-3.8,3.9c-3.6,0-4-3.1-4-6.5c0-4.1,1.2-6.4,4.1-6.4c3.3,0,3.6,2.9,3.6,3.9
			h-2.2c0-0.4-0.1-2-1.4-2c-1.4,0-1.8,1.7-1.8,4.6c0,2.4,0.2,4.6,1.7,4.6c1.3,0,1.4-1.5,1.5-2H348.4z"/>
		<path class="st36" d="M349.8,942.8h2.2v5h3v-5h2.3v12.5h-2.3v-5.6h-3v5.6h-2.2V942.8z"/>
		<path class="st36" d="M367.2,949c0,4.6-1.2,6.6-4.1,6.6c-2.7,0-4-2-4-6.6c0-4.5,1.5-6.3,4.1-6.3
			C365.9,942.7,367.2,944.7,367.2,949z M361.4,949c0,3,0.5,4.7,1.8,4.7c1.4,0,1.8-1.6,1.8-4.7c0-2.9-0.4-4.4-1.8-4.4
			S361.4,946.2,361.4,949z"/>
		<path class="st36" d="M376.8,949c0,4.6-1.2,6.6-4.1,6.6c-2.7,0-4-2-4-6.6c0-4.5,1.5-6.3,4.1-6.3
			C375.5,942.7,376.8,944.7,376.8,949z M370.9,949c0,3,0.5,4.7,1.8,4.7c1.4,0,1.8-1.6,1.8-4.7c0-2.9-0.4-4.4-1.8-4.4
			S370.9,946.2,370.9,949z"/>
		<path class="st36" d="M378.6,942.8h2.2v10.6h4.3l-0.2,1.9h-6.3V942.8z"/>
		<path class="st36" d="M389.6,942.8h3.8c2.2,0,3.4,1.2,3.4,3.2c0,1.6-0.7,2.4-1.4,2.6c0.9,0.4,1.8,1.2,1.8,3.1
			c0,2.4-1.6,3.7-3.8,3.7h-3.8V942.8z M392.9,947.8c1.4,0,1.8-0.5,1.8-1.6c0-1.1-0.6-1.6-1.7-1.6h-1.1v3.2H392.9z M391.8,953.6h1.3
			c1.1,0,1.8-0.6,1.8-2c0-1.3-0.5-2.1-2-2.1h-1.1V953.6z"/>
		<path class="st36" d="M400.9,942.8v8.6c0,1,0.3,2.2,1.6,2.2c1.3,0,1.6-1,1.6-2.2v-8.6h2.2v8.7c0,2.2-0.9,4.1-3.9,4.1
			c-3,0-3.9-1.7-3.9-4.1v-8.7H400.9z"/>
		<path class="st36" d="M410,951.9c0.1,1,0.5,1.9,1.7,1.9c1.1,0,1.5-0.7,1.5-1.6c0-1-0.5-1.6-2.1-2.4c-2.1-1-3-1.9-3-3.8
			c0-2,1.3-3.4,3.6-3.4c2.8,0,3.5,1.9,3.6,3.5H413c-0.1-0.7-0.2-1.8-1.4-1.8c-0.9,0-1.3,0.6-1.3,1.4c0,0.9,0.4,1.3,1.9,2
			c2.2,1,3.3,2,3.3,4.1c0,2-1.2,3.6-3.9,3.6c-2.9,0-3.8-1.9-3.8-3.7H410z"/>
	</g>
</g>
</svg>
