<?xml version="1.0" encoding="UTF-8"?>
<svg id="Layer_2" data-name="Layer 2" xmlns="http://www.w3.org/2000/svg" viewBox="0 0 316.2 143.03">
  <defs>
    <style>
      .cls-1 {
        fill: #ebb249;
      }

      .cls-2 {
        fill: #fff;
      }

      .cls-3 {
        fill: #ecebea;
      }

      .cls-4 {
        fill: #333947;
      }

      .cls-5 {
        fill: #e2c549;
      }
    </style>
  </defs>
  <g id="school_Bus" data-name="school Bus">
    <path class="cls-5" d="m4.01,117.6c.08-.74.27-10.45.03-31.43-.08-6.87,4.18-13.17,10.6-15.66,8.92-3.47,17.4-7.27,20.68-8.77l10.89-48.45h-7.26s1.53-6.53,1.53-6.53C41.4,2.8,44.93,0,49,0h2.11s55.66,0,55.66,0h206.82c1.37,0,2.48,1.11,2.48,2.48v115.72c0,.66-.26,1.29-.73,1.76-.46.46-1.09.72-1.75.72h0c-8.12-.02-29.14-.03-39.47-.05-16.85-.02-36.21-.04-56.65-.07-38.44-.04-80.69-.07-117.21-.07-21.52,0-41.06.01-56.65.03-21.36.04-35.32.1-36.88.2h-.03c-.1.01-.2.02-.3.02-.81,0-1.58-.4-2.04-1.08-.42-.61-.53-1.36-.34-2.05Z"/>
    <polygon class="cls-3" points="94.8 16.29 55.9 16.29 46.82 56.71 94.8 56.71 94.8 16.29"/>
    <g>
      <rect class="cls-3" x="262.03" y="15.67" width="43.19" height="40.42"/>
      <rect class="cls-3" x="209.92" y="15.67" width="43.19" height="40.42"/>
      <rect class="cls-3" x="157.81" y="15.67" width="43.19" height="40.42"/>
      <rect class="cls-3" x="105.7" y="15.67" width="43.19" height="40.42"/>
    </g>
    <path class="cls-4" d="m0,100.5h31.94v20.77H12.86C5.76,121.27,0,115.51,0,108.41v-7.91H0Z"/>
    <g>
      <path class="cls-1" d="m219.73,120.23c0,.08,0,.17,0,.25,21.52,0,41.06.01,56.65.03,0-.09,0-.19,0-.28,0-15.62-12.71-28.33-28.33-28.33s-28.33,12.71-28.33,28.33Z"/>
      <path class="cls-1" d="m45.87,120.23c0,.13,0,.26,0,.39,16.85-.02,36.21-.04,56.65-.07,0-.11,0-.22,0-.32,0-15.62-12.71-28.33-28.33-28.33s-28.33,12.71-28.33,28.33Z"/>
    </g>
    <g>
      <circle class="cls-4" cx="248.06" cy="120.23" r="22.79"/>
      <circle class="cls-2" cx="248.06" cy="120.23" r="13.67"/>
      <circle class="cls-4" cx="248.06" cy="120.23" r="6.67" transform="translate(74.05 334.03) rotate(-76.72)"/>
    </g>
    <g>
      <circle class="cls-4" cx="74.2" cy="120.23" r="22.79"/>
      <circle class="cls-2" cx="74.2" cy="120.23" r="13.67"/>
      <circle class="cls-4" cx="74.2" cy="120.23" r="6.67" transform="translate(-63.28 87.68) rotate(-45)"/>
    </g>
    <rect class="cls-4" x="45.45" y="60.14" width="270.75" height="6.68"/>
    <rect class="cls-4" x="43.05" y="85.29" width="272.8" height="2.58"/>
    <g>
      <path class="cls-4" d="m141.16,78.26c.09.79.41,1.49,1.29,1.49s1.15-.52,1.15-1.25c0-.78-.38-1.25-1.59-1.82-1.65-.78-2.3-1.48-2.3-2.91,0-1.53.99-2.58,2.72-2.58,2.17,0,2.69,1.46,2.72,2.71h-1.69c-.04-.55-.18-1.36-1.06-1.36-.68,0-.98.44-.98,1.09,0,.69.31,1.02,1.43,1.55,1.72.79,2.5,1.56,2.5,3.16,0,1.52-.94,2.77-2.96,2.77-2.21,0-2.88-1.42-2.94-2.85h1.7Z"/>
      <path class="cls-4" d="m152.2,78.15c-.04.48-.23,2.96-2.88,2.96s-3.05-2.4-3.05-4.98c0-3.11.91-4.94,3.15-4.94,2.54,0,2.74,2.18,2.78,2.95h-1.7c-.03-.33-.04-1.5-1.11-1.5s-1.35,1.32-1.35,3.52c0,1.82.18,3.52,1.3,3.52,1.02,0,1.11-1.16,1.15-1.53h1.7Z"/>
      <path class="cls-4" d="m153.28,71.34h1.72v3.8h2.31v-3.8h1.73v9.6h-1.73v-4.31h-2.31v4.31h-1.72v-9.6Z"/>
      <path class="cls-4" d="m166.62,76.08c0,3.5-.95,5.04-3.16,5.04-2.07,0-3.08-1.5-3.08-5.06s1.18-4.85,3.15-4.85c2.1,0,3.09,1.55,3.09,4.88Zm-4.48-.04c0,2.28.35,3.63,1.36,3.63,1.06,0,1.36-1.25,1.36-3.63,0-2.23-.33-3.39-1.36-3.39s-1.36,1.25-1.36,3.39Z"/>
      <path class="cls-4" d="m173.95,76.08c0,3.5-.95,5.04-3.16,5.04-2.07,0-3.08-1.5-3.08-5.06s1.18-4.85,3.15-4.85c2.1,0,3.09,1.55,3.09,4.88Zm-4.48-.04c0,2.28.35,3.63,1.36,3.63,1.06,0,1.36-1.25,1.36-3.63,0-2.23-.33-3.39-1.36-3.39s-1.36,1.25-1.36,3.39Z"/>
      <path class="cls-4" d="m175.3,71.34h1.72v8.14h3.29l-.17,1.46h-4.84v-9.6Z"/>
      <path class="cls-4" d="m183.8,71.34h2.92c1.67,0,2.58.92,2.58,2.44,0,1.21-.57,1.8-1.11,2,.68.27,1.39.89,1.39,2.34,0,1.83-1.19,2.82-2.89,2.82h-2.89v-9.6Zm2.51,3.83c1.06,0,1.35-.41,1.35-1.23s-.44-1.22-1.29-1.22h-.88v2.45h.82Zm-.82,4.44h1.02c.85,0,1.35-.44,1.35-1.52,0-.99-.41-1.57-1.53-1.57h-.84v3.09Z"/>
      <path class="cls-4" d="m192.43,71.34v6.61c0,.78.2,1.72,1.26,1.72s1.23-.78,1.23-1.7v-6.62h1.72v6.65c0,1.72-.67,3.12-2.98,3.12s-2.95-1.32-2.95-3.12v-6.65h1.72Z"/>
      <path class="cls-4" d="m199.37,78.26c.09.79.41,1.49,1.29,1.49s1.15-.52,1.15-1.25c0-.78-.38-1.25-1.59-1.82-1.65-.78-2.3-1.48-2.3-2.91,0-1.53.99-2.58,2.72-2.58,2.17,0,2.69,1.46,2.72,2.71h-1.69c-.04-.55-.18-1.36-1.06-1.36-.68,0-.98.44-.98,1.09,0,.69.31,1.02,1.43,1.55,1.72.79,2.5,1.56,2.5,3.16,0,1.52-.94,2.77-2.96,2.77-2.21,0-2.88-1.42-2.94-2.85h1.7Z"/>
    </g>
  </g>
</svg>