<?xml version="1.0" encoding="UTF-8"?>
<svg id="Layer_2" data-name="Layer 2" xmlns="http://www.w3.org/2000/svg" viewBox="0 0 292.99 84.04">
  <defs>
    <style>
      .cls-1 {
        fill: #f5f5f5;
      }

      .cls-2 {
        fill: #eeb869;
      }

      .cls-3 {
        fill: #fff;
      }

      .cls-4 {
        fill: #e76557;
      }

      .cls-5 {
        fill: #e75957;
      }

      .cls-6 {
        fill: #b8eae2;
      }

      .cls-7 {
        fill: #b44f4a;
      }

      .cls-8 {
        fill: #d7d0d0;
      }

      .cls-9 {
        fill: #162235;
      }

      .cls-10 {
        fill: #1c1715;
      }

      .cls-11 {
        fill: #619fb3;
      }
    </style>
  </defs>
  <g id="sports_car" data-name="sports car">
    <path class="cls-5" d="m292.98,29.86l-.16,1.45-.11,1-.99,9.44-.11,1-.64,5.93-.02.23-.13,1.22-.12,1.1-.36,3.37c-.11.96-.31,1.88-.6,2.77-1.31,3.91-4.42,7.04-8.47,8.38-.05.02-.1.03-.15.04l-11.19,1.95-1.16.38-.36.12H8.58c-3.12,0-5.87-2.01-6.79-4.96L.08,57.71C-1.78,24.19,30.97,26.41,91.35,22.97,116.89,5.91,125.2.42,132.43.02c1-.06,1.98,0,2.99.11l-23.11,23.65,93.55-5.08,2.33-10.82,25.32,7.04,2.62.18,3.69.26,2.28.16,3.7.26,2.28.15,3.7.26,2.27.15,3.7.26,2.28.16,3.7.25,2.27.16,3.7.26,7.95.55c7.47-.08,15.66,8.92,15.36,11.89Z"/>
    <path class="cls-2" d="m19.39,31.71c-8.14,2.94-13.14,6.31-15.6,15.24-.4,1.46.79,2.89,2.32,2.78.36-.02.11-.01,3.54-.11,2.98-.09,5.48-2.19,6.12-5.07.75-3.37,2.7-7.12,5.2-10.85.72-1.07-.35-2.44-1.57-2Z"/>
    <path class="cls-4" d="m113.1,58.09c.06,2.56,2.15,4.57,4.75,4.57h60.2c13.05,0,24.06-9.63,25.62-22.37l2.19-21.57-93.56,5.08.79,34.3Z"/>
    <path class="cls-10" d="m81.72,61.31v6.92H30.83v-6.92c0-12.58,9.36-22.99,21.56-24.83,1.26-.18,2.55-.28,3.88-.28,14.07,0,25.45,11.24,25.45,25.12Z"/>
    <path class="cls-10" d="m266.95,61.31v6.92h-50.89v-6.92c0-12.58,9.36-22.99,21.56-24.83,1.26-.18,2.55-.28,3.88-.28,14.07,0,25.45,11.24,25.45,25.12Z"/>
    <path class="cls-8" d="m200.48,25.95c.05,1.36-1.03,2.51-2.42,2.56l-9.44.33c-1.38.05-2.55-1.02-2.6-2.38h0c-.05-1.37,1.03-2.51,2.42-2.56l9.44-.33c1.38-.05,2.55,1.02,2.6,2.38h0Z"/>
    <path class="cls-11" d="m12.74,57.7H.08s0,0,0,0l1.72,5.56c.91,2.95,3.66,4.96,6.79,4.96h12.03s-1.95-6.21-1.95-6.21c-.8-2.57-3.21-4.31-5.93-4.31Z"/>
    <path class="cls-11" d="m289.24,58.61c-1.51,3.32-4.37,5.93-7.98,7.13-.05.02-.1.03-.15.04l-11.19,1.95-1.16.38,1.25-5.59c1-4.42,3.3-5.16,8.76-5.16h9.62c.65,0,1.11.66.85,1.25Z"/>
    <path class="cls-3" d="m291.81,31.31c.54,0,.97.46.91,1h0s-.99,9.44-.99,9.44l-.11,1-.64,5.93-.02.23-.13,1.22-.03.3c-.05.46-.44.81-.91.81h-.04c-1.39,0-2.66-.6-3.53-1.64-.87-1.04-1.24-2.42-.98-3.74l1.02-10.8s.01-.09.02-.14c.48-2.07,2.34-3.58,4.49-3.58h.95Z"/>
    <path class="cls-7" d="m291.7,32.31c.54,0,.97.46.91,1l-.89,8.44-.11,1-.64,5.93-.02.23-.04.41c-.05.46-.44.81-.91.81h-.26c-2.26,0-3.94-2.03-3.52-4.21l1.14-10.74c.34-1.67,1.8-2.85,3.51-2.85h.84Z"/>
    <path class="cls-9" d="m110.04,24.26c-.52,3.28,2.79,3.6,5.26,3.98.32.05.63.05.94.01l-1.73-12.04c-2.12.82-4.02,5.19-4.47,8.05Z"/>
    <path class="cls-6" d="m125.41,1.84c-6.54,2.78-15.98,9.06-34.06,21.13h12.69s24.88-20.2,24.88-20.2c.39-.31.17-.93-.33-.93h-3.18Z"/>
    <g>
      <path class="cls-9" d="m239.82,15.36l-.33,4.08c-.08,1.01-.97,1.76-1.99,1.68-.97-.08-1.71-.87-1.71-1.82,0-.05,0-.1,0-.14l.33-4.05,3.69.26Z"/>
      <path class="cls-9" d="m245.79,15.78l-.34,4.13c-.08,1.01-.97,1.75-1.99,1.67-.97-.08-1.71-.87-1.71-1.82,0-.05,0-.1,0-.15l.33-4.1,3.7.26Z"/>
      <path class="cls-9" d="m251.76,16.19l-.34,4.19c-.08,1.01-.97,1.76-1.99,1.68-.97-.08-1.7-.87-1.7-1.82,0-.05,0-.1,0-.15l.33-4.16,3.7.26Z"/>
      <path class="cls-9" d="m257.73,16.6l-.34,4.24c-.08,1.01-.97,1.76-1.99,1.68-.97-.08-1.71-.87-1.71-1.82,0-.05,0-.1,0-.14l.34-4.21,3.7.26Z"/>
      <path class="cls-9" d="m263.7,17.01l-.35,4.3c-.07,1.01-.97,1.76-1.99,1.67-.97-.08-1.71-.87-1.71-1.82,0-.05,0-.1,0-.15l.34-4.26,3.7.25Z"/>
      <path class="cls-9" d="m269.67,17.43l-.35,4.35c-.07,1.01-.97,1.76-1.99,1.68-.97-.08-1.71-.87-1.71-1.82,0-.05,0-.1,0-.15l.34-4.32,3.7.26Z"/>
    </g>
    <g>
      <path class="cls-1" d="m47.26,61.71c0,4.91,4.03,8.9,9.02,8.9,4.98,0,9.01-3.99,9.01-8.9,0-4.92-4.04-8.9-9.01-8.9-4.99,0-9.02,3.98-9.02,8.9Z"/>
      <path class="cls-10" d="m56.27,39.38c-12.5,0-22.63,9.99-22.63,22.33,0,12.33,10.13,22.33,22.63,22.33,12.49,0,22.63-10,22.63-22.33,0-12.33-10.13-22.33-22.63-22.33Zm0,37.49c-8.49,0-15.37-6.79-15.37-15.16s6.88-15.17,15.37-15.17c8.49,0,15.37,6.79,15.37,15.17,0,8.38-6.88,15.16-15.37,15.16Z"/>
      <path class="cls-8" d="m40.37,61.71c0,8.66,7.12,15.69,15.9,15.69,8.79,0,15.9-7.03,15.9-15.69,0-8.67-7.12-15.69-15.9-15.69s-15.9,7.02-15.9,15.69Zm8.55,4.72c-.61-.91-1.03-1.93-1.27-3.02-.1-.55-.17-1.12-.17-1.7s.08-1.23.21-1.82c.23-1.08.67-2.09,1.26-2.98.66-.98,1.53-1.83,2.53-2.47.91-.58,1.92-1,3.01-1.23.57-.12,1.17-.18,1.78-.18s1.21.06,1.78.18c1.09.23,2.1.65,3.01,1.22,1,.65,1.86,1.49,2.53,2.47.6.89,1.04,1.89,1.27,2.98.12.59.2,1.19.2,1.82s-.07,1.15-.18,1.7c-.21,1.09-.65,2.11-1.25,3.02-.65.99-1.51,1.84-2.51,2.5-.92.6-1.95,1.04-3.07,1.27-.57.12-1.17.18-1.78.18s-1.21-.06-1.78-.18c-1.11-.23-2.15-.67-3.08-1.27-.99-.66-1.85-1.51-2.49-2.5Zm-1.5-15.99c2-1.54,4.42-2.57,7.07-2.89v4.26c-1.48.26-2.84.82-4.03,1.64l-3.04-3Zm10.63-2.89c2.65.32,5.07,1.34,7.07,2.89l-3.04,3c-1.19-.81-2.56-1.38-4.03-1.64v-4.26Zm9.6,5.36c1.57,1.98,2.63,4.38,2.97,6.99h-4.32c-.27-1.46-.86-2.81-1.69-3.98l3.04-3.01Zm2.98,10.5c-.31,2.63-1.36,5.04-2.93,7.03l-3.04-3.01c.83-1.18,1.41-2.55,1.67-4.03h4.31Zm-5.44,9.53c-2.01,1.57-4.46,2.61-7.14,2.93v-4.26c1.51-.26,2.9-.84,4.09-1.68l3.04,3.01Zm-10.69,2.93c-2.68-.32-5.12-1.37-7.15-2.93l3.05-3.01c1.2.84,2.59,1.42,4.09,1.68v4.26Zm-9.65-5.43c-1.57-1.99-2.62-4.4-2.94-7.03h4.32c.25,1.48.83,2.84,1.67,4.03l-3.04,3.01Zm-2.92-10.55c.34-2.61,1.39-5.01,2.97-6.99l3.04,3.01c-.83,1.17-1.42,2.52-1.69,3.98h-4.32Z"/>
    </g>
    <g>
      <path class="cls-1" d="m232.74,61.71c0,4.91,4.03,8.9,9.02,8.9,4.98,0,9.01-3.99,9.01-8.9s-4.04-8.9-9.01-8.9c-4.99,0-9.02,3.98-9.02,8.9Z"/>
      <path class="cls-10" d="m241.76,39.38c-12.5,0-22.63,9.99-22.63,22.33,0,12.33,10.13,22.33,22.63,22.33s22.63-10,22.63-22.33-10.13-22.33-22.63-22.33Zm0,37.49c-8.49,0-15.37-6.79-15.37-15.16,0-8.38,6.88-15.17,15.37-15.17,8.48,0,15.37,6.79,15.37,15.17s-6.88,15.16-15.37,15.16Z"/>
      <path class="cls-8" d="m225.86,61.71c0,8.66,7.12,15.69,15.9,15.69s15.9-7.03,15.9-15.69c0-8.67-7.12-15.69-15.9-15.69-8.79,0-15.9,7.02-15.9,15.69Zm8.55,4.72c-.61-.91-1.03-1.93-1.27-3.02-.1-.55-.17-1.12-.17-1.7s.08-1.23.21-1.82c.22-1.08.66-2.09,1.26-2.98.67-.98,1.53-1.83,2.53-2.47.91-.58,1.92-1,3.01-1.23.57-.12,1.17-.18,1.78-.18s1.21.06,1.78.18c1.09.23,2.1.65,3.01,1.22,1,.65,1.86,1.49,2.53,2.47.6.89,1.04,1.89,1.27,2.98.12.59.2,1.19.2,1.82s-.07,1.15-.18,1.7c-.21,1.09-.65,2.11-1.25,3.02-.66.99-1.51,1.84-2.51,2.5-.92.6-1.95,1.04-3.07,1.27-.57.12-1.17.18-1.78.18s-1.21-.06-1.78-.18c-1.12-.23-2.15-.67-3.08-1.27-.99-.66-1.85-1.51-2.49-2.5Zm-1.5-15.99c2-1.54,4.42-2.57,7.07-2.89v4.26c-1.48.26-2.84.82-4.03,1.64l-3.04-3Zm10.63-2.89c2.65.32,5.07,1.34,7.07,2.89l-3.04,3c-1.19-.81-2.56-1.38-4.03-1.64v-4.26Zm9.6,5.36c1.57,1.98,2.63,4.38,2.97,6.99h-4.32c-.27-1.46-.86-2.81-1.7-3.98l3.04-3.01Zm2.98,10.5c-.31,2.63-1.36,5.04-2.93,7.03l-3.04-3.01c.83-1.18,1.41-2.55,1.67-4.03h4.31Zm-5.44,9.53c-2.01,1.57-4.46,2.61-7.14,2.93v-4.26c1.51-.26,2.9-.84,4.09-1.68l3.04,3.01Zm-10.69,2.93c-2.68-.32-5.12-1.37-7.15-2.93l3.05-3.01c1.2.84,2.59,1.42,4.09,1.68v4.26Zm-9.65-5.43c-1.57-1.99-2.62-4.4-2.94-7.03h4.32c.25,1.48.83,2.84,1.67,4.03l-3.04,3.01Zm-2.92-10.55c.34-2.61,1.39-5.01,2.97-6.99l3.04,3.01c-.83,1.17-1.42,2.52-1.69,3.98h-4.32Z"/>
    </g>
  </g>
</svg>